<?xml version="1.0" encoding="UTF-8" standalone="no"?>
<!DOCTYPE svg PUBLIC "-//W3C//DTD SVG 1.1//EN" "http://www.w3.org/Graphics/SVG/1.1/DTD/svg11.dtd">
<svg width="100%" height="100%" viewBox="0 0 2500 1863" version="1.1" xmlns="http://www.w3.org/2000/svg" xmlns:xlink="http://www.w3.org/1999/xlink" xml:space="preserve" xmlns:serif="http://www.serif.com/" style="fill-rule:evenodd;clip-rule:evenodd;stroke-linejoin:round;stroke-miterlimit:2;">
    <g>
        <path d="M1722.89,1403.9C1686.33,1404.73 1649.77,1404.25 1613.25,1403.78C1561.25,1403.11 1509.32,1402.43 1457.6,1405.52C1372.44,1410.6 1286.49,1409.38 1200.71,1408.16C1154.47,1407.5 1108.29,1406.85 1062.3,1407.18C924.618,1408.16 787.161,1407.2 649.85,1407.09C616.327,1407.06 582.815,1408.17 549.304,1409.28C505.345,1410.74 461.387,1412.2 417.407,1411.09C276.621,1407.52 133.74,1352.95 96.276,1203.31C70.349,1099.75 114.279,988.936 187.71,915.276C227.084,875.779 271.418,843.484 304.524,797.747C346.919,739.178 361.362,672.186 381.276,604.203C405.814,520.436 434.922,431.964 488.174,360.384C544.393,284.817 636.379,239.839 729.594,233.904C834.284,227.24 915.388,274.924 987.8,346.601C1050.37,408.539 1111.93,464.301 1200.85,482.562C1297.45,502.402 1398.58,483.156 1490.06,450.198C1598.09,411.28 1701.8,382.209 1786.84,489.683C1831.73,546.406 1858.84,619.41 1907.34,672.496C2014.54,789.813 2229.51,789.051 2273.26,977.017C2299.83,1091.2 2235.98,1199.93 2161.16,1269.88C2075.64,1349.83 1942.91,1381.35 1835.99,1395.73C1798.33,1400.8 1760.62,1403.04 1722.89,1403.9Z" style="fill:rgb(245,245,254);fill-rule:nonzero;"/>
        <path d="M1546.64,232.792C1545.92,228.46 1551.66,219.724 1557.91,219.864C1560.4,219.92 1562.83,220.565 1565.32,220.444C1571.94,220.121 1575.37,214.967 1577.92,210.7C1580.47,206.432 1585.55,201.567 1592,202.65C1601.29,204.208 1605.97,216.464 1616.53,207.263C1623.44,201.24 1623.96,192.818 1631.78,186.978C1637.15,182.969 1645.89,180.594 1653.09,182.809C1662.49,185.7 1665.98,195.018 1675.99,196.639C1687.07,198.435 1695.04,190.002 1698.58,183.921C1702.88,176.542 1704.47,168.564 1708.15,161.055C1711.55,154.103 1718.4,144.791 1730.66,144.993C1741.03,145.164 1745.6,151.729 1750.69,156.941C1757.32,163.72 1771.07,188.06 1786.5,185.125C1792.52,183.981 1795.53,179.201 1800.95,177.062C1809.68,173.622 1820.81,178.351 1826.07,184.3C1831.32,190.248 1833.41,197.427 1839.35,203.054C1840.89,204.51 1842.75,205.884 1845.17,206.545C1853.47,208.816 1861.2,201.829 1870.08,201.31C1876.22,200.951 1881.91,203.833 1885.43,207.348C1888.96,210.863 1890.88,215.015 1893.58,218.869C1894.33,219.943 1895.18,221.029 1896.54,221.757C1900.44,223.847 1905.92,222.084 1910.7,221.263C1922.5,219.232 1935.9,224.648 1939.23,232.792L1546.64,232.792Z" style="fill:rgb(245,245,254);fill-rule:nonzero;"/>
        <path d="M838.806,390.979C839.335,387.773 835.091,381.304 830.459,381.408C828.617,381.449 826.815,381.927 824.977,381.837C820.076,381.598 817.536,377.782 815.647,374.623C813.758,371.463 809.997,367.861 805.22,368.662C798.343,369.816 794.877,378.89 787.062,372.078C781.944,367.618 781.561,361.383 775.767,357.059C771.79,354.091 765.323,352.332 759.991,353.972C753.032,356.113 750.444,363.012 743.036,364.212C734.829,365.542 728.928,359.298 726.308,354.795C723.129,349.332 721.948,343.425 719.225,337.865C716.705,332.718 711.636,325.824 702.555,325.973C694.876,326.1 691.493,330.961 687.724,334.82C682.821,339.838 672.634,357.86 661.209,355.687C656.755,354.84 654.53,351.302 650.511,349.717C644.048,347.17 635.812,350.672 631.918,355.075C628.025,359.48 626.482,364.795 622.082,368.961C620.944,370.039 619.562,371.057 617.774,371.546C611.629,373.228 605.908,368.055 599.329,367.67C594.788,367.405 590.574,369.538 587.964,372.141C585.354,374.743 583.931,377.818 581.933,380.672C581.377,381.466 580.746,382.27 579.74,382.809C576.854,384.356 572.793,383.052 569.257,382.444C560.521,380.94 550.597,384.95 548.132,390.979L838.806,390.979Z" style="fill:white;fill-rule:nonzero;"/>
        <path d="M1620.31,611.859C1620.84,608.652 1616.6,602.184 1611.97,602.287C1610.12,602.328 1608.32,602.806 1606.48,602.717C1601.58,602.477 1599.04,598.662 1597.15,595.502C1595.26,592.343 1591.5,588.74 1586.73,589.542C1579.85,590.696 1576.38,599.77 1568.57,592.958C1563.45,588.498 1563.07,582.263 1557.27,577.938C1553.3,574.971 1546.83,573.212 1541.5,574.852C1534.54,576.992 1531.95,583.891 1524.54,585.092C1516.33,586.422 1510.43,580.178 1507.81,575.675C1504.63,570.212 1503.45,564.305 1500.73,558.744C1498.21,553.598 1493.14,546.703 1484.06,546.853C1476.38,546.979 1473,551.84 1469.23,555.699C1464.33,560.718 1454.14,578.74 1442.72,576.567C1438.26,575.719 1436.04,572.181 1432.02,570.597C1425.55,568.05 1417.32,571.551 1413.42,575.955C1409.53,580.359 1407.99,585.675 1403.59,589.841C1402.45,590.919 1401.07,591.936 1399.28,592.426C1393.14,594.107 1387.41,588.934 1380.83,588.55C1376.29,588.284 1372.08,590.418 1369.47,593.02C1366.86,595.623 1365.44,598.698 1363.44,601.551C1362.88,602.346 1362.25,603.15 1361.25,603.688C1358.36,605.236 1354.3,603.931 1350.76,603.323C1342.03,601.82 1332.1,605.83 1329.64,611.859L1620.31,611.859Z" style="fill:white;fill-rule:nonzero;"/>
        <path d="M1124.37,1304.2C1100.08,1271.51 1077.96,1235.7 1055.73,1203.2C1046.76,1190.07 1037.78,1176.38 1033.51,1161.56C1023.04,1125.22 1041.73,1098.37 1075.19,1109.99C1107.49,1121.21 1124.63,1158.05 1143.68,1186.76C1166.87,1221.7 1197.75,1269.7 1207.59,1309.52C1212.18,1328.11 1209.63,1348.26 1196.91,1356.99C1191.39,1360.78 1184,1362.14 1176.69,1359.45C1169.44,1356.78 1163.09,1350.59 1157.33,1344.36C1145.82,1331.91 1134.89,1318.34 1124.37,1304.2Z" style="fill:rgb(248,161,122);fill-rule:nonzero;"/>
        <path d="M1188.42,1221.54C1188.42,1221.54 1100.94,1275.87 1093.31,1282.16C1091.36,1283.77 1062.37,1252.97 1059.71,1250.01C1047.6,1236.52 1036.51,1221.81 1028.28,1205.6C1011.99,1173.51 1008.77,1126.98 1046.6,1108.24C1080.93,1091.22 1108.58,1117.45 1130.06,1141.41C1151.9,1165.76 1188.42,1221.54 1188.42,1221.54Z" style="fill:rgb(38,168,209);fill-rule:nonzero;"/>
        <path d="M1116.95,1097.7C1116.1,1090.35 1111.09,1084.73 1108.82,1077.91C1105.4,1067.65 1100.12,1055.62 1103.9,1044.83C1105.03,1041.58 1107.01,1038.67 1108.08,1035.39C1110.58,1027.7 1107.56,1023.62 1105.02,1017.05C1102.31,1010.05 1107.99,1002.78 1112.48,997.783C1117.73,991.94 1123.31,986.394 1129.18,981.179C1133.63,977.232 1138.71,973.288 1144.65,973.067C1154.51,972.7 1161.45,982.275 1166.49,990.75C1172.82,1001.4 1179.39,1013.15 1177.6,1025.41C1176.19,1035.08 1170.12,1044.24 1166.09,1053.01C1162.05,1061.81 1159.27,1071.13 1155.36,1080.05C1153.58,1084.1 1154.37,1088.81 1154.78,1093.05C1155.09,1096.19 1155.38,1099.46 1154.23,1102.39C1152.94,1105.68 1150.04,1108.06 1147.01,1109.86C1141.44,1113.17 1134.24,1115.44 1127.7,1114.41C1122.73,1113.62 1117.37,1112.76 1116.84,1106.79C1116.63,1104.37 1117.11,1101.94 1117.07,1099.51C1117.06,1098.9 1117.02,1098.3 1116.95,1097.7Z" style="fill:rgb(248,161,122);fill-rule:nonzero;"/>
        <path d="M1108.34,1035.39C1110.84,1027.69 1107.82,1023.61 1105.28,1017.05C1102.57,1010.04 1108.25,1002.77 1112.74,997.778C1117.99,991.935 1123.57,986.389 1129.44,981.174C1133.89,977.227 1138.97,973.283 1144.91,973.062C1147.83,972.953 1150.5,973.722 1152.93,975.071C1151.2,979.08 1148.31,983.239 1147.71,986.545C1146.55,992.925 1149.51,999.108 1149.28,1005.47C1149.09,1010.48 1147.32,1015.6 1145.74,1020.33C1138.98,1040.55 1124.81,1056.85 1104.32,1063.21C1102.74,1057.04 1102.08,1050.75 1104.16,1044.82C1105.29,1041.57 1107.27,1038.66 1108.34,1035.39Z" style="fill:rgb(229,120,92);fill-rule:nonzero;"/>
        <path d="M1086.1,1429.9C1094.33,1376.4 1102.16,1322.83 1109.79,1269.24C1116.15,1224.56 1133.68,1155.43 1098.64,1117.99C1091.44,1110.3 1082.23,1104.9 1072.25,1101.66C1065.64,1099.51 1000.26,1084.57 1000.18,1085.04L1000.19,1084.99C999.361,1084.85 998.531,1084.74 997.703,1084.61C996.876,1084.47 996.053,1084.32 995.226,1084.18L995.218,1084.23C971.959,1080.7 948.408,1079.18 925.04,1077.36C871.374,1073.19 848.236,1130.74 838.281,1173.97C824.191,1235.15 812.565,1296.87 801.589,1358.67C796.204,1389 790.984,1419.35 785.7,1449.7C780.655,1478.67 769.245,1499.02 800.66,1512.24C847.438,1531.94 896.989,1538.94 946.943,1546.31C978.323,1550.94 1049.74,1562.47 1068.13,1526.59C1071.97,1519.09 1073.36,1510.62 1074.7,1502.31C1078.6,1478.19 1082.39,1454.05 1086.1,1429.9Z" style="fill:rgb(61,200,232);fill-rule:nonzero;"/>
        <path d="M804.431,1289.63C830.892,1258.68 855.398,1224.45 879.781,1193.53C889.626,1181.05 899.517,1168 904.784,1153.51C917.704,1117.96 900.882,1089.9 866.705,1099.22C833.712,1108.22 814.116,1143.81 793.156,1171.15C767.646,1204.44 733.57,1250.23 721.047,1289.29C715.203,1307.52 716.379,1327.8 728.475,1337.37C733.721,1341.53 741,1343.39 748.477,1341.2C755.89,1339.03 762.646,1333.29 768.818,1327.46C781.154,1315.82 792.976,1303.03 804.431,1289.63Z" style="fill:rgb(248,161,122);fill-rule:nonzero;"/>
        <path d="M1044.36,1108.92C1045.72,1102.33 1044.87,1096.92 1038.78,1093.44C1033.24,1090.27 1035.16,1081.79 1035.56,1076.68C1036.24,1068.04 1036.82,1059.4 1038.5,1050.89C1040.45,1040.69 1042.2,1030.44 1044.43,1020.3C1033.32,1016.29 1024.19,1013.7 1011.95,1012.16C1001.81,1010.89 991.903,1008.32 981.75,1007.2C980.933,1007.11 980.042,1007.04 979.391,1007.42C978.736,1007.81 978.508,1008.54 978.328,1009.22C974.724,1022.83 973.768,1037.05 970.451,1050.73C968.624,1058.27 963.91,1079.57 953.706,1080.07C952.804,1080.11 951.879,1079.99 951.012,1080.24C949.703,1080.62 948.767,1081.79 948.188,1083.02C942.164,1095.87 952.158,1112.13 961.352,1120.7C971.288,1129.96 984.578,1134.79 997.975,1135.93C1018.53,1137.67 1039.67,1131.61 1044.36,1108.92Z" style="fill:rgb(248,161,122);fill-rule:nonzero;"/>
        <path d="M1035.64,1075.74C1036.44,1066.01 1037.25,1058.9 1038.8,1050.82C1040.75,1040.62 1042.5,1030.37 1044.73,1020.23C1033.62,1016.22 1024.49,1013.63 1012.25,1012.09C1002.11,1010.82 992.201,1008.25 982.047,1007.13C981.23,1007.04 980.339,1006.97 979.688,1007.35C979.034,1007.74 978.806,1008.47 978.625,1009.15C975.021,1022.76 973.768,1037.05 970.451,1050.73C969.501,1054.65 968.764,1058.64 967.296,1062.42C968.679,1063.9 969.924,1065.15 971.404,1066.5C982.512,1076.66 998.833,1082.09 1014.32,1080.79C1022.2,1080.12 1028.9,1078.58 1035.64,1075.74Z" style="fill:rgb(229,120,92);fill-rule:nonzero;"/>
        <path d="M1115.1,1082.48C1115.25,1081.87 1115.45,1081.28 1115.73,1080.71C1117.1,1077.93 1120.1,1076.36 1123,1075.24C1127.85,1073.39 1132.99,1072.29 1138.18,1072.01C1143.18,1071.74 1149.06,1072.73 1151.44,1077.14C1156.04,1085.64 1155.37,1096.02 1157.68,1105.18C1169.55,1152.29 1193.21,1196.27 1207.72,1242.7C1215.87,1268.77 1239.4,1342.99 1196.84,1351.69C1189.37,1353.22 1181.45,1350.06 1175.07,1345.3C1161.51,1335.18 1153.75,1318.61 1148.06,1302.34C1124.45,1234.89 1116.41,1158.38 1114.79,1087.46C1114.76,1085.8 1114.73,1084.08 1115.1,1082.48Z" style="fill:rgb(248,161,122);fill-rule:nonzero;"/>
        <path d="M758.163,1189.02C758.163,1189.02 842.262,1249.54 849.489,1256.38C851.341,1258.14 882.55,1229.19 885.416,1226.41C898.5,1213.69 910.633,1199.69 920.004,1183.98C938.552,1152.88 944.967,1106.39 908.281,1084.98C874.977,1065.55 845.432,1089.99 822.229,1112.57C798.641,1135.53 758.163,1189.02 758.163,1189.02Z" style="fill:rgb(61,200,232);fill-rule:nonzero;"/>
        <path d="M958.642,1016.01C974.095,1032.12 994.818,1041.96 1015.28,1050.88C1020.31,1053.06 1025.41,1055.24 1030.82,1056.09C1047.42,1058.71 1063.25,1048.66 1076.15,1037.89C1093.97,1023.01 1109.84,1005.81 1123.25,986.865C1148.95,950.576 1159.81,905.592 1158.26,861.495C1157.48,839.143 1153.09,817.743 1147.04,796.294C1141.98,778.356 1133.73,760.18 1114.05,754.91C1100.21,751.206 1085.44,756.005 1071.26,754.048C1057.9,752.204 1045.88,744.49 1032.51,742.73C1003.43,738.903 978.365,763.363 949.534,768.763C935.892,771.318 921.223,769.618 908.646,775.489C888.102,785.076 881.071,810.714 879.743,833.346C875.865,899.424 899.267,960.68 947.959,1004.77C951.782,1008.23 955.042,1012.26 958.642,1016.01Z" style="fill:rgb(11,45,78);fill-rule:nonzero;"/>
        <path d="M935.215,935.26C934.133,915.614 935.818,896.803 940.14,880.993C958.787,812.782 1044.61,790.684 1099.83,835.214C1161.41,884.875 1146.93,1014.06 1088.26,1062.9C1072.57,1075.96 1050.52,1081.62 1030.26,1077.77C968.964,1066.16 938.593,996.633 935.215,935.26Z" style="fill:rgb(248,161,122);fill-rule:nonzero;"/>
        <path d="M917.891,882.412C918.336,880.966 918.818,879.53 919.336,878.107C945.922,805.117 1035.78,803.849 1096.31,834.603C1108.98,841.042 1127.74,850.482 1134.66,863.232C1138.4,870.127 1139.51,878.082 1140.04,885.876C1141.04,900.646 1140.18,915.54 1137.5,930.121C1133.97,917.406 1130.4,904.568 1124.08,892.936C1117.76,881.305 1108.35,870.816 1095.98,865.544C1084.64,860.715 1071.82,860.601 1059.45,861.147C1041.91,861.922 1023.94,864.002 1008.38,871.966C991.598,880.552 978.874,895.455 970.258,911.908C962.039,927.603 956.003,945.587 953.53,963.008C952.524,970.093 950.628,993.571 938.117,990.372C936.225,989.888 919.304,979.385 919.081,978.584C915.226,964.722 912.924,950.517 912.15,936.714C911.049,917.071 913.014,898.248 917.891,882.412Z" style="fill:rgb(229,120,92);fill-rule:nonzero;"/>
        <path d="M956.922,918.029C951.862,941.664 954.543,970.501 943.41,992.461C926.975,985.773 922.678,968.315 915.265,953.56C907.413,937.934 899.519,922.199 894.755,905.438C891.15,892.753 889.342,879.318 890.976,866.174C892.358,855.055 899.499,848.393 907.234,840.287C936.923,809.17 983.546,791.031 1029.76,790.615C1046,790.469 1059.58,795.015 1075.07,798.163C1089.29,801.055 1100.13,802.837 1111.18,813.177C1121.01,822.376 1127.75,834.225 1133.24,846.347C1142.2,866.113 1147.96,886.735 1147.9,908.431C1147.86,922.302 1148.76,935.962 1135.18,944.497C1136.95,943.385 1135.81,898.597 1135.46,892.09C1133.12,848.949 1093.25,843.828 1057.15,847.347C1024.62,850.517 988.752,858.423 970.409,884.648C963.417,894.644 959.49,906.032 956.922,918.029Z" style="fill:rgb(11,45,78);fill-rule:nonzero;"/>
        <path d="M935.566,945.671C909.074,933.281 903.423,969.236 908.941,986.605C911.219,993.777 914.545,1000.71 919.446,1006.42C926.047,1014.11 944.318,1026.41 953.8,1016.94C958.104,1012.64 958.144,1005.8 957.902,999.729C957.253,983.438 953.524,954.07 935.566,945.671Z" style="fill:rgb(248,161,122);fill-rule:nonzero;"/>
        <path d="M1126.7,931.723C1151.12,915.619 1161.93,950.373 1158.99,968.359C1157.78,975.786 1155.49,983.124 1151.47,989.486C1146.06,998.056 1129.76,1012.88 1119.01,1004.89C1114.13,1001.26 1113.09,994.498 1112.45,988.451C1110.73,972.239 1110.16,942.64 1126.7,931.723Z" style="fill:rgb(248,161,122);fill-rule:nonzero;"/>
        <path d="M1133.84,780.758C1133.99,779.865 1134.07,778.975 1134.07,778.093C1134.06,774.212 1132.68,770.542 1130.56,767.381C1128.42,764.216 1125.54,761.53 1122.35,759.555C1118.85,757.392 1115.1,755.931 1111.32,754.723C1107.55,753.515 1103.74,752.557 1100.11,751.442C1088.76,747.98 1077.77,742.573 1065.79,739.537C1058.81,737.775 1051.63,736.908 1044.44,736.908C1030.24,736.909 1016.04,740.295 1003.43,746.889C997.59,749.949 992.026,753.64 986.403,756.569C980.776,759.505 975.137,761.662 969.134,761.859C968.826,761.87 968.519,761.874 968.211,761.875C962.554,761.88 956.955,760.154 951.182,758.139C945.411,756.136 939.488,753.852 933.125,753.02C931.416,752.798 929.703,752.69 927.996,752.69C921.574,752.691 915.239,754.207 909.386,756.841C903.532,759.475 898.155,763.227 893.628,767.74C883.405,777.942 877.308,791.499 873.985,805.302C872.034,813.408 871.188,821.201 871.189,828.9C871.189,838.907 872.613,848.749 874.861,858.963C876.901,868.23 878.558,877.132 880.95,885.898C883.341,894.661 886.475,903.29 891.471,911.93L894.934,909.929C890.155,901.66 887.144,893.399 884.808,884.845C882.473,876.294 880.824,867.452 878.767,858.103C876.558,848.067 875.189,838.524 875.189,828.9C875.189,821.493 875.999,814.033 877.874,806.237C881.073,792.926 886.929,780.062 896.452,770.573C900.641,766.395 905.635,762.914 911.028,760.488C916.421,758.061 922.207,756.69 927.996,756.69C929.535,756.69 931.075,756.787 932.61,756.987C938.34,757.726 944.022,759.877 949.867,761.917C955.711,763.946 961.737,765.869 968.211,765.874C968.562,765.874 968.914,765.869 969.267,765.857C976.16,765.625 982.383,763.175 988.252,760.116C994.125,757.049 999.691,753.356 1005.28,750.433C1017.29,744.149 1030.88,740.907 1044.44,740.908C1051.3,740.908 1058.16,741.737 1064.81,743.415C1076.25,746.295 1087.18,751.66 1098.93,755.267C1102.7,756.42 1106.49,757.375 1110.1,758.532C1113.72,759.688 1117.15,761.045 1120.24,762.957C1122.97,764.639 1125.46,766.974 1127.24,769.614C1129.02,772.259 1130.07,775.179 1130.07,778.093C1130.07,778.758 1130.01,779.425 1129.9,780.094L1133.84,780.758Z" style="fill:rgb(11,45,78);fill-rule:nonzero;"/>
        <path d="M907.387,856.101C904.915,848.059 903.965,839.528 904.391,831.032C904.868,822.563 906.958,813.943 911.627,806.517C912.232,805.607 912.78,804.655 913.499,803.82L914.524,802.529L915.038,801.883L915.593,801.291L917.835,798.942L920.257,796.764C923.573,793.951 927.274,791.556 931.252,789.736C935.227,787.906 939.469,786.712 943.747,785.986C948.032,785.258 952.361,785.059 956.649,785.128C960.932,785.222 965.209,785.653 969.387,786.168C973.368,786.69 977.408,786.556 981.417,785.98C989.472,784.873 997.271,781.741 1005.45,779.484C1009.54,778.346 1013.73,777.367 1018,776.913C1022.28,776.497 1026.61,776.523 1030.84,777.155C1039.3,778.367 1047.41,781.685 1054.13,786.744C1046.93,782.431 1038.84,779.743 1030.62,779.106C1026.51,778.723 1022.38,778.907 1018.34,779.513C1014.29,780.158 1010.3,781.201 1006.35,782.474C1002.4,783.744 998.473,785.201 994.441,786.509C990.417,787.826 986.281,789.023 981.991,789.724C977.708,790.43 973.275,790.575 968.921,790.048C964.767,789.566 960.679,789.196 956.568,789.125C952.47,789.029 948.375,789.189 944.374,789.84C940.372,790.475 936.475,791.594 932.786,793.187C929.095,794.778 925.641,796.902 922.498,799.447L920.193,801.427L918.032,803.576L917.489,804.112L917.003,804.681L916.028,805.821C915.342,806.553 914.813,807.412 914.225,808.227C911.943,811.544 910.238,815.271 908.935,819.146C907.626,823.026 906.793,827.089 906.337,831.201C905.388,839.429 905.772,847.858 907.387,856.101Z" style="fill:rgb(115,184,212);fill-rule:nonzero;"/>
        <path d="M1347.6,1285.89C1324.14,1317.42 1178.37,1317.42 1178.37,1317.42L1073.78,1290.01L1210.69,1233.97C1210.69,1233.97 1289.08,1264.55 1347.6,1285.89Z" style="fill:rgb(209,209,211);fill-rule:nonzero;"/>
        <path d="M919.042,1340.64L994.463,1340.64L1003.72,1317.42L923.662,1307.97L919.042,1340.64Z" style="fill:rgb(128,129,133);fill-rule:nonzero;"/>
        <path d="M1351.78,1310.16C1327.19,1322.73 1204.21,1294.19 1178.37,1317.42L1178.37,1340.64L1363.93,1340.64L1351.78,1310.16Z" style="fill:rgb(174,179,183);fill-rule:nonzero;"/>
        <path d="M906.213,1305.84C952.216,1312.68 1003.72,1317.42 1003.72,1317.42L1179.37,1335.39L1074.78,1307.99C1074.78,1307.99 964.733,1284.49 906.213,1305.84Z" style="fill:rgb(209,209,211);fill-rule:nonzero;"/>
        <path d="M1006.61,1310.16C1031.2,1322.73 1154.18,1294.19 1180.02,1317.42L1180.02,1340.64L994.463,1340.64L1006.61,1310.16Z" style="fill:rgb(174,179,183);fill-rule:nonzero;"/>
        <path d="M1178.37,1317.42C1178.37,1317.42 1110.51,1302.83 1073.78,1290.01C1073.78,1236.37 1169.99,1207.15 1178.37,1190.33C1216.85,1206.12 1293.84,1230.09 1347.6,1247.14C1299.78,1290.01 1197.64,1279.75 1178.37,1317.42Z" style="fill:white;fill-rule:nonzero;"/>
        <path d="M899.197,1275.69C945.429,1286.54 1003.72,1317.42 1003.72,1317.42L1178.37,1317.42L1073.78,1290.01C1073.78,1290.01 957.718,1254.35 899.197,1275.69Z" style="fill:white;fill-rule:nonzero;"/>
        <path d="M1160.29,1336.95L1172.33,1324.91C1176.3,1320.94 1182.75,1320.94 1186.73,1324.91L1198.76,1336.95L1179.53,1347.4L1160.29,1336.95Z" style="fill:rgb(56,31,122);fill-rule:nonzero;"/>
        <path d="M920.311,1340.58C932.625,1340.51 944.938,1340.45 957.252,1340.38C963.409,1340.35 969.565,1340.31 975.722,1340.28C978.78,1340.26 981.916,1340.52 984.971,1340.23C987.524,1340 989.814,1339.21 992.185,1341.04C993.808,1342.3 994.942,1344.77 994.563,1347.2C993.607,1353.35 983.472,1350.96 980.202,1350.98C973.408,1351.02 966.614,1351.05 959.821,1351.09C946.439,1351.16 933.058,1351.23 919.676,1351.31C914.301,1351.34 914.95,1340.61 920.311,1340.58Z" style="fill:rgb(56,31,122);fill-rule:nonzero;"/>
        <path d="M991.356,1340.06C1047.73,1337.23 1104.11,1334.4 1160.49,1331.57C1163.02,1331.45 1164.84,1333.37 1165.67,1335.52C1165.04,1333.88 1166.71,1336.59 1167.34,1337.04C1170.95,1339.61 1175.46,1339.89 1179.72,1340.06C1186.61,1340.34 1186.65,1351.08 1179.72,1350.81C1170.44,1350.43 1159.07,1348.12 1155.31,1338.38C1157.04,1339.69 1158.76,1341.01 1160.49,1342.32C1104.11,1345.15 1047.73,1347.98 991.356,1350.81C984.444,1351.15 984.463,1340.41 991.356,1340.06Z" style="fill:rgb(128,112,242);fill-rule:nonzero;"/>
        <path d="M1368.09,1350.81C1311.71,1347.98 1255.33,1345.15 1198.96,1342.32C1200.68,1341.01 1202.41,1339.69 1204.14,1338.38C1200.38,1348.12 1189,1350.43 1179.72,1350.81C1172.81,1351.08 1172.82,1340.34 1179.72,1340.06C1184.05,1339.89 1188.41,1339.55 1192.11,1337.04C1192.75,1336.6 1194.41,1333.88 1193.78,1335.52C1194.6,1333.38 1196.45,1331.45 1198.96,1331.57C1255.33,1334.4 1311.71,1337.23 1368.09,1340.06C1374.97,1340.4 1375.01,1351.15 1368.09,1350.81Z" style="fill:rgb(128,112,242);fill-rule:nonzero;"/>
        <path d="M973.885,1343.03C980.082,1329.16 970.126,1317.19 957.659,1312.8C943.085,1307.67 928.204,1305.11 913.292,1301.64C897.314,1297.93 881.312,1294.3 865.205,1291.18C834.391,1285.21 802.367,1281.56 770.685,1282.17C750.469,1282.56 716.412,1284.96 714.716,1311.85C714.237,1319.44 718.178,1326.73 723.419,1332.24C734.562,1343.96 750.979,1348.91 766.867,1351.89C825.539,1362.9 887.116,1356.27 946.469,1354.76C955.342,1354.53 965.279,1353.83 971.191,1347.21C972.32,1345.95 973.212,1344.54 973.885,1343.03Z" style="fill:rgb(248,161,122);fill-rule:nonzero;"/>
        <path d="M953.508,1347.31C962.138,1348.21 969.493,1354.97 978.159,1356.61C984.342,1357.78 990.674,1356.18 996.227,1353.44C1001.33,1350.91 1006.62,1349.3 1011.89,1347.01C1016,1345.22 1021.44,1341.79 1026.1,1342.28C1038.3,1343.56 1051.08,1350.87 1062.47,1355.3C1065.03,1356.29 1067.82,1357.3 1070.46,1356.52C1073.09,1355.74 1075.01,1352.26 1073.25,1350.15C1076.66,1352.75 1081.37,1358.15 1086.17,1355.39C1088.14,1354.26 1089.1,1351.41 1087.77,1349.58C1089.69,1351.3 1091.7,1353.08 1094.18,1353.78C1096.66,1354.48 1099.75,1353.76 1100.94,1351.47C1101.5,1350.39 1101.57,1349.13 1101.51,1347.92C1101.3,1343.75 1099.63,1339.78 1097.52,1336.17C1087.12,1318.41 1066.43,1306.54 1048.89,1297.1C1045.79,1295.43 1042.63,1293.74 1039.18,1293.05C1036.09,1292.44 1032.89,1292.65 1029.76,1292.96C1009.39,1294.91 989.345,1300.26 970.704,1308.7C966.67,1310.52 961.953,1309.79 957.712,1309.43C954.571,1309.16 951.294,1308.91 948.374,1310.1C945.105,1311.42 942.763,1314.35 940.998,1317.4C937.752,1323.02 935.566,1330.24 936.678,1336.77C937.522,1341.72 938.443,1347.07 944.424,1347.53C946.847,1347.71 949.272,1347.21 951.703,1347.21C952.311,1347.22 952.912,1347.25 953.508,1347.31Z" style="fill:rgb(248,161,122);fill-rule:nonzero;"/>
        <path d="M115.73,1405.86L1576.92,1405.86C1591.81,1405.86 1603.88,1392.38 1603.88,1375.74C1603.88,1359.11 1591.81,1345.62 1576.92,1345.62L115.73,1345.62C100.845,1345.62 88.778,1359.11 88.778,1375.74C88.778,1392.38 100.845,1405.86 115.73,1405.86Z" style="fill:rgb(219,205,254);fill-rule:nonzero;"/>
        <path d="M1438.3,1274.34C1439.49,1274.59 1440.66,1273.83 1440.91,1272.64L1444.66,1254.63C1444.91,1253.44 1444.15,1252.28 1442.96,1252.03C1441.76,1251.78 1440.6,1252.54 1440.35,1253.73L1436.59,1271.74C1436.35,1272.93 1437.11,1274.1 1438.3,1274.34Z" style="fill:rgb(0,163,213);fill-rule:nonzero;"/>
        <path d="M1465.86,1142.22C1469.13,1142.91 1472.38,1140.79 1473.06,1137.51L1477.55,1115.95C1478.24,1112.68 1476.12,1109.43 1472.84,1108.75C1469.56,1108.07 1466.32,1110.19 1465.63,1113.47L1461.14,1135.02C1460.46,1138.3 1462.58,1141.54 1465.86,1142.22Z" style="fill:rgb(0,163,213);fill-rule:nonzero;"/>
        <path d="M1440.47,1263.95C1443.75,1264.63 1446.99,1262.51 1447.67,1259.23L1452.17,1237.68C1452.85,1234.4 1450.73,1231.16 1447.45,1230.47C1444.17,1229.79 1440.93,1231.91 1440.25,1235.19L1435.75,1256.74C1435.07,1260.02 1437.19,1263.26 1440.47,1263.95Z" style="fill:rgb(0,163,213);fill-rule:nonzero;"/>
        <path d="M1462.63,1124.09L1476.07,1126.89C1479.43,1127.59 1481.59,1130.88 1480.88,1134.24L1469.46,1189.02L1455.22,1243.52C1454.38,1246.73 1451.18,1248.72 1447.94,1248.04L1439.99,1246.38C1436.74,1245.7 1434.6,1242.6 1435.11,1239.33L1443.85,1183.68L1455.27,1128.9C1455.97,1125.54 1459.26,1123.38 1462.63,1124.09Z" style="fill:rgb(109,201,240);fill-rule:nonzero;"/>
        <path d="M1445.39,1187.7L1466.44,1192.09C1468.4,1192.5 1470.32,1191.24 1470.73,1189.28C1471.14,1187.32 1469.88,1185.4 1467.92,1184.99L1446.87,1180.6C1444.91,1180.19 1442.99,1181.45 1442.58,1183.41C1442.17,1185.37 1443.43,1187.29 1445.39,1187.7Z" style="fill:rgb(0,163,213);fill-rule:nonzero;"/>
        <path d="M1435.97,1178.33C1437.5,1178.65 1439.02,1177.66 1439.34,1176.12L1450.13,1124.39C1450.45,1122.86 1449.45,1121.34 1447.92,1121.02C1446.38,1120.7 1444.87,1121.69 1444.55,1123.23L1433.76,1174.96C1433.44,1176.49 1434.43,1178.01 1435.97,1178.33Z" style="fill:rgb(0,163,213);fill-rule:nonzero;"/>
        <path d="M1446.27,1142.9L1452.1,1144.12L1455.27,1128.9L1449.44,1127.69L1446.27,1142.9Z" style="fill:rgb(109,201,240);fill-rule:nonzero;"/>
        <path d="M1405.97,1091.29L1433.56,1089.87L1440.29,1220.97L1412.7,1222.39L1405.97,1091.29Z" style="fill:rgb(255,199,60);fill-rule:nonzero;"/>
        <path d="M1433.55,1212.47L1419.19,1212.47L1418.4,1210.76L1412.26,1090.96L1419.77,1090.58L1427.28,1090.19L1433.55,1212.47Z" style="fill:rgb(255,216,119);fill-rule:nonzero;"/>
        <path d="M1428.97,1265.64L1412.7,1222.39L1440.73,1220.95L1428.97,1265.64Z" style="fill:rgb(11,45,78);fill-rule:nonzero;"/>
        <path d="M1420.48,1243.08L1412.7,1222.39L1440.73,1220.95L1435.1,1242.33L1420.48,1243.08Z" style="fill:rgb(255,233,204);fill-rule:nonzero;"/>
        <path d="M1405.97,1091.29L1433.56,1089.87L1432.86,1076.21L1405.27,1077.63L1405.97,1091.29Z" style="fill:rgb(11,45,78);fill-rule:nonzero;"/>
        <path d="M1405.3,1078.18L1432.89,1076.76L1432.79,1074.88C1432.46,1068.38 1426.92,1063.37 1420.41,1063.71L1416.37,1063.92C1409.87,1064.25 1404.87,1069.79 1405.2,1076.29L1405.3,1078.18Z" style="fill:rgb(155,135,255);fill-rule:nonzero;"/>
        <path d="M1433.8,1244.12L1408.72,1255.7L1353.71,1136.51L1378.79,1124.93L1433.8,1244.12Z" style="fill:rgb(255,199,60);fill-rule:nonzero;"/>
        <path d="M1359.42,1133.87L1371.77,1128.17L1359.42,1133.87Z" style="fill:rgb(248,248,254);fill-rule:nonzero;"/>
        <path d="M1412.26,1212.47L1395.7,1212.47L1359.42,1133.87L1371.77,1128.17L1373.08,1127.57L1412.26,1212.47Z" style="fill:rgb(255,216,119);fill-rule:nonzero;"/>
        <path d="M1347.6,1090.84L1378.79,1124.93L1353.31,1136.7L1347.6,1090.84Z" style="fill:rgb(11,45,78);fill-rule:nonzero;"/>
        <path d="M1363.87,1108.62L1378.79,1124.93L1353.31,1136.7L1350.58,1114.76L1363.87,1108.62Z" style="fill:rgb(255,233,204);fill-rule:nonzero;"/>
        <path d="M1433.8,1244.12L1408.72,1255.7L1414.45,1268.12L1439.53,1256.54L1433.8,1244.12Z" style="fill:rgb(81,102,111);fill-rule:nonzero;"/>
        <path d="M1439.3,1256.04L1414.22,1267.62L1419.12,1278.22C1419.58,1279.22 1420.77,1279.66 1421.77,1279.2L1443.22,1269.3C1444.22,1268.83 1444.66,1267.65 1444.2,1266.64L1439.3,1256.04Z" style="fill:rgb(216,88,78);fill-rule:nonzero;"/>
        <rect x="1385.11" y="1212.47" width="83.57" height="134.06" style="fill:rgb(56,31,122);fill-rule:nonzero;"/>
        <rect x="1426.9" y="1212.47" width="41.78" height="134.06" style="fill:rgb(50,28,110);fill-rule:nonzero;"/>
        <path d="M406.879,1346.21L658.855,1346.21C679.81,1346.21 696.798,1332.99 696.798,1316.68L696.798,1309.11C696.798,1292.79 679.81,1279.57 658.855,1279.57L406.879,1279.57L406.879,1288.66L641.343,1288.66C649.403,1288.66 655.937,1293.75 655.937,1300.02L655.937,1325.77C655.937,1332.04 649.403,1337.13 641.343,1337.13L406.879,1337.13L406.879,1346.21Z" style="fill:rgb(255,199,60);fill-rule:nonzero;"/>
        <path d="M377.693,1346.21L629.668,1346.21C650.624,1346.21 667.611,1332.99 667.611,1316.68L667.611,1309.11C667.611,1292.79 650.624,1279.57 629.668,1279.57L377.693,1279.57L377.693,1288.66L629.668,1288.66C644.176,1288.66 655.937,1297.81 655.937,1309.11L655.937,1316.68C655.937,1327.97 644.176,1337.13 629.668,1337.13L377.693,1337.13L377.693,1346.21Z" style="fill:rgb(239,177,38);fill-rule:nonzero;"/>
        <path d="M384.503,1337.13L632.433,1337.13C645.817,1337.13 656.666,1326.28 656.666,1312.89C656.666,1299.51 645.817,1288.66 632.433,1288.66L384.503,1288.66L384.503,1337.13Z" style="fill:white;fill-rule:nonzero;"/>
        <path d="M643.046,1309.55C624.196,1309.02 605.347,1308.66 586.498,1308.48C567.647,1308.26 548.798,1308.2 529.948,1308.17C511.099,1308.2 492.25,1308.25 473.399,1308.47C454.55,1308.65 435.701,1309.01 416.851,1309.55C435.701,1310.08 454.55,1310.44 473.399,1310.62C492.25,1310.84 511.099,1310.9 529.948,1310.93C548.798,1310.9 567.647,1310.84 586.498,1310.62C605.347,1310.44 624.196,1310.08 643.046,1309.55Z" style="fill:rgb(223,219,218);fill-rule:nonzero;"/>
        <path d="M612.644,1324.56C593.794,1324.03 574.944,1323.67 556.095,1323.49C537.245,1323.27 518.396,1323.21 499.546,1323.18C480.696,1323.21 461.847,1323.27 442.997,1323.49C424.147,1323.67 405.298,1324.03 386.449,1324.56C405.298,1325.1 424.147,1325.46 442.997,1325.64C461.847,1325.86 480.696,1325.91 499.546,1325.94C518.396,1325.91 537.245,1325.85 556.095,1325.63C574.944,1325.45 593.794,1325.09 612.644,1324.56Z" style="fill:rgb(223,219,218);fill-rule:nonzero;"/>
        <path d="M384.016,1303.9L384.016,1288.66L384.503,1288.66L384.503,1303.89L384.016,1303.9ZM654.15,1302.13C652.977,1299.77 651.431,1297.62 649.588,1295.78C650.078,1296.22 650.544,1296.68 650.985,1297.16C652.165,1298.57 653.294,1300.22 654.349,1302.13L654.15,1302.13Z" style="fill:rgb(224,223,231);fill-rule:nonzero;"/>
        <path d="M650.985,1297.16C650.544,1296.68 650.078,1296.22 649.588,1295.78C645.201,1291.38 639.134,1288.66 632.433,1288.66C637.896,1288.66 645.078,1290.06 650.985,1297.16Z" style="fill:rgb(218,162,37);fill-rule:nonzero;"/>
        <path d="M384.503,1303.89L384.503,1288.66L632.433,1288.66C639.134,1288.66 645.201,1291.38 649.588,1295.78C651.431,1297.62 652.977,1299.77 654.15,1302.13L384.503,1303.89Z" style="fill:rgb(233,232,232);fill-rule:nonzero;"/>
        <path d="M390.218,1279.57L653.869,1279.57C668.353,1279.57 680.137,1267.79 680.137,1253.31L680.137,1220.22C680.137,1205.74 668.353,1193.96 653.869,1193.96L390.218,1193.96L390.218,1205.63L653.869,1205.63C661.915,1205.63 668.463,1212.18 668.463,1220.22L668.463,1253.31C668.463,1261.35 661.915,1267.9 653.869,1267.9L390.218,1267.9L390.218,1279.57Z" style="fill:rgb(56,31,122);fill-rule:nonzero;"/>
        <path d="M397.029,1267.9L654.599,1267.9C662.659,1267.9 669.193,1261.36 669.193,1253.3L669.193,1220.23C669.193,1212.17 662.659,1205.63 654.599,1205.63L397.029,1205.63L397.029,1267.9Z" style="fill:white;fill-rule:nonzero;"/>
        <path d="M397.029,1220.87L397.029,1205.63L654.599,1205.63C662.659,1205.63 669.193,1212.17 669.193,1220.23L397.029,1220.87Z" style="fill:rgb(233,232,232);fill-rule:nonzero;"/>
        <path d="M633.196,1232.72C614.346,1232.1 595.497,1231.69 576.646,1231.48C557.797,1231.22 538.948,1231.16 520.098,1231.12C501.249,1231.15 482.399,1231.22 463.549,1231.47C444.7,1231.68 425.85,1232.1 407,1232.72C425.85,1233.33 444.7,1233.75 463.549,1233.96C482.399,1234.21 501.249,1234.28 520.098,1234.31C538.948,1234.27 557.797,1234.21 576.646,1233.95C595.497,1233.74 614.346,1233.33 633.196,1232.72Z" style="fill:rgb(223,219,218);fill-rule:nonzero;"/>
        <path d="M653.626,1246.12C634.776,1245.5 615.927,1245.09 597.078,1244.88C578.228,1244.63 559.378,1244.56 540.528,1244.53C521.679,1244.55 502.83,1244.62 483.979,1244.87C465.13,1245.08 446.281,1245.5 427.431,1246.12C446.281,1246.74 465.13,1247.15 483.979,1247.36C502.83,1247.61 521.679,1247.68 540.528,1247.71C559.378,1247.68 578.228,1247.61 597.078,1247.35C615.927,1247.14 634.776,1246.73 653.626,1246.12Z" style="fill:rgb(223,219,218);fill-rule:nonzero;"/>
        <path d="M638.424,1150.3L386.449,1150.3C365.494,1150.3 348.506,1137.07 348.506,1120.76L348.506,1113.19C348.506,1096.88 365.494,1083.66 386.449,1083.66L638.424,1083.66L638.424,1092.74L403.961,1092.74C395.901,1092.74 389.367,1097.83 389.367,1104.1L389.367,1129.85C389.367,1136.12 395.901,1141.21 403.961,1141.21L638.424,1141.21L638.424,1150.3Z" style="fill:rgb(139,1,141);fill-rule:nonzero;"/>
        <path d="M667.611,1150.3L415.635,1150.3C394.681,1150.3 377.693,1137.07 377.693,1120.76L377.693,1113.19C377.693,1096.88 394.681,1083.66 415.635,1083.66L667.61,1083.66L667.61,1092.74L415.635,1092.74C401.128,1092.74 389.367,1101.9 389.367,1113.19L389.367,1120.76C389.367,1132.06 401.128,1141.21 415.635,1141.21L667.611,1141.21L667.611,1150.3Z" style="fill:rgb(56,31,122);fill-rule:nonzero;"/>
        <path d="M660.801,1141.21L412.871,1141.21C399.487,1141.21 388.638,1130.36 388.638,1116.98C388.638,1103.59 399.487,1092.74 412.871,1092.74L660.801,1092.74L660.801,1141.21Z" style="fill:white;fill-rule:nonzero;"/>
        <path d="M402.258,1113.63C421.107,1113.1 439.957,1112.74 458.807,1112.56C477.656,1112.34 496.506,1112.28 515.354,1112.26C534.205,1112.28 553.054,1112.34 571.904,1112.56C590.753,1112.74 609.603,1113.1 628.453,1113.63C609.603,1114.17 590.753,1114.53 571.904,1114.71C553.054,1114.93 534.205,1114.99 515.354,1115.01C496.506,1114.98 477.656,1114.92 458.807,1114.7C439.957,1114.52 421.107,1114.16 402.258,1113.63Z" style="fill:rgb(223,219,218);fill-rule:nonzero;"/>
        <path d="M432.66,1128.65C451.51,1128.11 470.359,1127.76 489.209,1127.57C508.059,1127.35 526.908,1127.3 545.758,1127.27C564.607,1127.29 583.457,1127.35 602.307,1127.57C621.156,1127.75 640.006,1128.11 658.855,1128.65C640.006,1129.18 621.156,1129.54 602.307,1129.72C583.457,1129.94 564.607,1130 545.758,1130.02C526.908,1130 508.059,1129.94 489.209,1129.72C470.359,1129.53 451.51,1129.18 432.66,1128.65Z" style="fill:rgb(223,219,218);fill-rule:nonzero;"/>
        <path d="M661.287,1107.98L660.801,1107.98L660.801,1092.74L661.287,1092.74L661.287,1107.98ZM391.154,1106.21L390.955,1106.21C392.01,1104.3 393.138,1102.66 394.318,1101.24C394.76,1100.76 395.228,1100.3 395.72,1099.86C393.875,1101.71 392.327,1103.85 391.154,1106.21Z" style="fill:rgb(224,223,231);fill-rule:nonzero;"/>
        <path d="M394.318,1101.24C400.225,1094.14 407.408,1092.74 412.871,1092.74C406.171,1092.74 400.106,1095.46 395.72,1099.86C395.228,1100.3 394.76,1100.76 394.318,1101.24Z" style="fill:rgb(54,31,113);fill-rule:nonzero;"/>
        <path d="M660.801,1107.98L391.154,1106.21C392.327,1103.85 393.875,1101.71 395.72,1099.86C400.106,1095.46 406.171,1092.74 412.871,1092.74L660.801,1092.74L660.801,1107.98Z" style="fill:rgb(233,232,232);fill-rule:nonzero;"/>
        <rect x="369.91" y="1150.3" width="319.105" height="44.99" style="fill:rgb(61,200,232);fill-rule:nonzero;"/>
        <rect x="648.153" y="1157.23" width="12.04" height="31.13" style="fill:rgb(255,199,60);fill-rule:nonzero;"/>
        <rect x="588.321" y="1157.23" width="12.04" height="31.13" style="fill:rgb(255,199,60);fill-rule:nonzero;"/>
        <rect x="606.928" y="1150.3" width="33.929" height="44.99" style="fill:rgb(255,199,60);fill-rule:nonzero;"/>
        <rect x="399.096" y="969.499" width="319.105" height="44.991" style="fill:rgb(139,1,141);fill-rule:nonzero;"/>
        <rect x="427.917" y="969.499" width="12.04" height="44.991" style="fill:rgb(56,31,122);fill-rule:nonzero;"/>
        <rect x="447.253" y="969.499" width="18.468" height="44.991" style="fill:rgb(56,31,122);fill-rule:nonzero;"/>
        <rect x="367.313" y="1014.49" width="319.104" height="69.78" style="fill:rgb(255,199,60);fill-rule:nonzero;"/>
        <rect x="645.557" y="1025.24" width="12.039" height="46.39" style="fill:rgb(38,168,209);fill-rule:nonzero;"/>
        <rect x="388.229" y="1025.24" width="12.04" height="46.39" style="fill:rgb(38,168,209);fill-rule:nonzero;"/>
        <rect x="409.876" y="1025.24" width="12.04" height="46.39" style="fill:rgb(38,168,209);fill-rule:nonzero;"/>
        <path d="M587.916,1048.44C587.916,1061.25 598.301,1071.63 611.11,1071.63C623.92,1071.63 634.305,1061.25 634.305,1048.44C634.305,1035.63 623.92,1025.24 611.11,1025.24C598.301,1025.24 587.916,1035.63 587.916,1048.44Z" style="fill:rgb(38,168,209);fill-rule:nonzero;"/>
        <rect x="452.65" y="1113.63" width="16.417" height="48.43" style="fill:rgb(0,163,213);fill-rule:nonzero;"/>
        <rect x="0" y="1406.02" width="2500" height="456.98" style="fill:white;fill-rule:nonzero;"/>
        <path d="M2259.96,927.722C2221.59,943.379 2173.22,938.644 2139.34,914.543C2105.29,890.322 2074.06,872.514 2030.8,871.23C2003.93,870.432 1978.74,881.672 1953.13,888.089C1930.62,893.73 1913.43,911.81 1889.16,915.136C1857.27,919.506 1824.52,899.896 1810.18,871.079C1795.83,842.262 1798.97,806.394 1815.01,778.489C1826.72,758.12 1837.5,742.916 1824.33,720.206C1821.46,715.259 1817.86,710.677 1815.9,705.307C1814.04,700.238 1813.76,694.728 1813.97,689.336C1815.16,659.911 1837.45,637.849 1852.3,613.55C1855.77,607.869 1859.26,601.976 1860.31,595.402C1862.98,578.675 1849.69,564.21 1842.6,548.823C1819.64,498.966 1858.82,442.256 1896.96,412.339C1919.45,394.689 1946.42,387.566 1970.69,373.182C1981.74,366.633 1991.81,358.518 2002.99,352.197C2022.49,341.176 2043.74,340.706 2065.39,343.742C2127.06,352.39 2197.17,397.218 2211.46,461.737C2221.15,505.471 2205.29,556.314 2248.61,586.931C2261.66,596.153 2278.14,601.638 2287.04,614.909C2305.96,643.113 2278.17,684.893 2295.46,714.118C2299.32,720.636 2305.08,725.757 2310.33,731.219C2338.02,760.043 2352.31,801.243 2348.42,841.021C2347.47,850.729 2345.43,860.512 2340.63,869.006C2334.05,880.67 2322.89,888.922 2311.99,896.701C2295.67,908.344 2279.02,919.833 2260.49,927.502C2260.32,927.576 2260.14,927.649 2259.96,927.722Z" style="fill:rgb(11,45,78);fill-rule:nonzero;"/>
        <path d="M2196.04,734.902C2198.44,750.854 2196.62,767.247 2189.62,781.811C2170.75,821.089 2124.01,828.745 2084.6,830.282C2070.01,830.851 2055.34,830.12 2040.9,827.967C2028.03,826.049 2016.56,828.007 2003.55,827.71C1977.85,827.122 1952.28,819.537 1930.56,805.742C1920,799.032 1910.05,790.558 1904.63,779.278C1897.18,763.771 1899.35,745.447 1903.29,728.7C1905.57,719.031 1908.42,709.382 1913.39,700.78C1918.7,691.576 1926.32,683.755 1930.75,674.095C1939.07,655.935 1932.23,634.71 1939.63,616.896C1945.43,602.947 1959.99,587.201 1972.08,578.481C1988.53,566.615 2009.75,562.867 2029.98,564.244C2050.22,565.623 2069.8,571.724 2089.08,578.027C2104.25,582.99 2117.3,579.917 2128.43,592.454C2137.26,602.393 2134.18,618.614 2137,630.657C2146.48,671.153 2189.65,692.525 2196.04,734.902Z" style="fill:rgb(6,31,51);fill-rule:nonzero;"/>
        <path d="M2249.72,1858.09C2255.57,1955.34 2254.75,2033.87 2261.86,2155.73C2262.86,2172.74 2264.17,2189.72 2265.41,2206.71C2266.14,2216.67 2270.59,2238.9 2262.95,2246.91C2260.88,2249.08 2258,2250.27 2255.21,2251.36C2236.83,2258.55 2217.81,2264.5 2198.18,2266.49C2176.41,2268.7 2155.48,2264.11 2135.04,2257.25C2134.61,2257.11 2134.17,2256.95 2133.86,2256.61C2133.5,2256.21 2133.4,2255.65 2133.33,2255.12C2131.56,2242.98 2131.23,2231.32 2130.58,2219.19C2129.38,2196.92 2127.78,2174.68 2125.83,2152.46C2121.94,2108.04 2116.68,2063.74 2110.56,2019.57C2098.29,1931.04 2082.58,1843.04 2067.41,1754.97C2055.58,1686.29 2044.06,1617.54 2034.76,1548.47C2026.01,1483.48 2001.85,1422.85 2001.23,1356.34C2000.98,1329.55 2004.34,1300.39 2022.95,1281.11C2043.98,1259.31 2077.54,1256.87 2107.83,1256.29C2187.75,1254.78 2210.81,1327.67 2223.75,1390.4C2239.23,1465.39 2237.18,1549.54 2238.27,1626.1C2239.36,1703.5 2245.07,1780.72 2249.72,1858.09Z" style="fill:rgb(11,45,78);fill-rule:nonzero;"/>
        <path d="M2317.16,762.864C2310.43,757.079 2305.62,749.697 2302.47,741.434C2299.33,733.175 2297.87,724.039 2297.87,714.845C2297.87,708.14 2298.65,701.406 2300.1,694.966C2301.8,687.379 2304.33,679.789 2306.47,672.063C2308.6,664.338 2310.33,656.465 2310.33,648.304C2310.33,647.584 2310.31,646.863 2310.29,646.142C2309.87,635.364 2305.93,624.954 2299.58,616.335C2293.22,607.719 2284.45,600.873 2274.28,597.285C2269.11,595.465 2263.8,594.463 2258.66,593.346C2253.52,592.233 2248.56,591.006 2244.05,588.853C2237.21,585.595 2231.89,580.523 2227.59,574.448C2223.3,568.377 2220.06,561.315 2217.47,554.225C2214.42,545.885 2213.74,538.247 2213.73,530.231C2213.73,523.916 2214.17,517.381 2214.17,510.215L2214.17,509.48C2214.08,488.489 2213.55,467.437 2211.41,446.469C2210.14,434.112 2205.83,421.903 2199.77,410.594C2193.7,399.284 2185.87,388.869 2177.5,380.104C2175.09,377.583 2172.58,375.16 2169.98,372.84C2156.05,360.407 2138.15,350.269 2118.56,343.217C2098.96,336.168 2077.67,332.209 2056.92,332.207C2033.5,332.209 2010.75,337.257 1992.02,348.729C1986.77,351.948 1982.53,355.77 1978.63,359.774C1974.73,363.782 1971.15,367.972 1967.2,372.012C1959.26,380.129 1948.81,386.831 1938.98,392.992C1919.19,405.413 1897.82,415.247 1876.73,425.697C1863.26,432.384 1849.33,439.65 1839.11,451.324C1827.35,464.777 1821.93,482.812 1821.93,500.514C1821.93,501.36 1821.94,502.206 1821.96,503.051C1822.51,521.544 1828.57,539.416 1836.95,555.682C1842.88,567.165 1849.89,577.943 1853.49,589.812C1854.56,593.33 1855.05,596.792 1855.05,600.194C1855.05,607.632 1852.71,614.807 1848.87,621.43C1845.03,628.049 1839.7,634.09 1833.85,639.174C1828.33,643.97 1822.32,648.625 1816.85,653.829C1811.4,659.031 1806.48,664.804 1803.27,671.861C1800.8,677.299 1799.58,683.242 1799.58,689.183C1799.58,696.103 1801.23,703.028 1804.53,709.154C1807.39,714.444 1811.23,718.919 1814.93,723.315C1818.62,727.708 1822.16,732.019 1824.56,736.875C1826.91,741.651 1828.1,747.004 1828.1,752.359C1828.1,757.418 1827.04,762.473 1824.92,767.04C1822.51,772.258 1818.63,777.526 1815.26,782.952C1813.58,785.669 1812.02,788.436 1810.88,791.306C1809.73,794.175 1808.99,797.163 1808.99,800.273C1808.98,802.246 1809.29,804.263 1809.96,806.288L1813.76,805.028C1813.22,803.411 1812.99,801.841 1812.99,800.273C1812.99,797.808 1813.58,795.329 1814.59,792.791C1816.11,788.986 1818.58,785.088 1821.2,781.101C1823.81,777.11 1826.55,773.03 1828.55,768.722C1830.93,763.597 1832.1,757.976 1832.1,752.359C1832.1,746.414 1830.79,740.465 1828.14,735.105C1825.47,729.695 1821.69,725.153 1817.99,720.741C1814.27,716.33 1810.63,712.046 1808.05,707.257C1805.09,701.752 1803.58,695.467 1803.58,689.183C1803.58,683.789 1804.69,678.402 1806.91,673.515C1809.81,667.124 1814.35,661.739 1819.61,656.724C1824.87,651.709 1830.84,647.086 1836.47,642.193C1842.59,636.869 1848.21,630.529 1852.33,623.437C1856.44,616.35 1859.05,608.484 1859.05,600.194C1859.05,596.409 1858.51,592.541 1857.32,588.647C1853.47,576.056 1846.29,565.095 1840.51,553.85C1832.31,537.943 1826.48,520.619 1825.96,502.933C1825.94,502.127 1825.93,501.321 1825.93,500.514C1825.92,483.612 1831.13,466.505 1842.12,453.958C1851.67,443.028 1865.08,435.929 1878.51,429.281C1899.53,418.863 1921.02,408.982 1941.11,396.38C1950.95,390.196 1961.66,383.379 1970.06,374.809C1974.13,370.642 1977.72,366.444 1981.5,362.566C1985.28,358.684 1989.25,355.121 1994.11,352.139C2012.04,341.149 2034.07,336.205 2056.92,336.207C2077.16,336.206 2098.03,340.081 2117.21,346.981C2136.38,353.878 2153.86,363.802 2167.32,375.824C2169.84,378.075 2172.27,380.424 2174.61,382.866C2182.74,391.387 2190.37,401.537 2196.24,412.485C2202.12,423.433 2206.24,435.174 2207.43,446.875C2209.55,467.64 2210.08,488.562 2210.17,509.497L2210.17,509.491L2210.17,510.215C2210.17,517.216 2209.74,523.734 2209.73,530.231C2209.73,538.464 2210.44,546.687 2213.71,555.599C2216.38,562.889 2219.74,570.266 2224.32,576.757C2228.91,583.243 2234.75,588.855 2242.32,592.464C2247.34,594.849 2252.61,596.124 2257.81,597.255C2263.02,598.382 2268.16,599.367 2272.95,601.057C2282.28,604.348 2290.45,610.69 2296.36,618.709C2302.27,626.726 2305.91,636.399 2306.29,646.295C2306.32,646.965 2306.33,647.636 2306.33,648.304C2306.33,655.892 2304.71,663.41 2302.61,671C2300.52,678.589 2297.96,686.236 2296.19,694.088C2294.68,700.812 2293.87,707.832 2293.87,714.845C2293.87,724.46 2295.39,734.065 2298.74,742.857C2302.08,751.645 2307.26,759.627 2314.56,765.898L2317.16,762.864Z" style="fill:rgb(11,45,78);fill-rule:nonzero;"/>
        <path d="M1999.82,395.474C2011.45,389.444 2024.55,386.535 2037.63,385.983C2050.76,385.394 2063.9,387.09 2076.69,390.013C2102.35,395.698 2126.43,408.79 2145.08,427.492C2163.82,446.059 2176.89,470.658 2180.59,496.99C2182.4,510.187 2181.75,523.366 2182.02,536.345C2182.27,549.247 2183.31,562.424 2188.67,573.908C2194.1,585.368 2203.51,594.662 2213.91,602.152C2224.38,609.718 2235.96,615.774 2247.14,622.684C2252.65,626.135 2258.58,629.74 2262.65,635.53C2266.75,641.391 2267.63,648.557 2267.72,655.137C2267.79,661.82 2266.95,668.509 2265.2,674.952C2263.5,681.444 2260.47,687.449 2257.98,693.361C2255.44,699.285 2253.83,705.456 2254.47,711.779C2255.03,718.083 2257.18,724.223 2259.88,730.076C2265.42,741.801 2272.23,753.02 2277.86,764.88C2283.48,776.708 2287.82,789.395 2288.82,802.535C2289.98,815.615 2288.32,828.907 2284.01,841.243C2288.03,828.809 2289.37,815.549 2287.92,802.622C2286.62,789.635 2282.07,777.267 2276.23,765.669C2270.47,753.994 2263.56,742.904 2257.76,731.066C2254.93,725.114 2252.58,718.765 2251.89,712.018C2251.09,705.244 2252.82,698.352 2255.35,692.288C2257.85,686.14 2260.67,680.366 2262.2,674.149C2263.83,667.968 2264.63,661.569 2264.52,655.184C2264.42,648.84 2263.49,642.37 2259.96,637.407C2256.43,632.394 2250.89,628.945 2245.38,625.55C2234.31,618.767 2222.63,612.735 2211.85,605.021C2201.13,597.356 2191.2,587.756 2185.33,575.487C2179.62,563.071 2178.71,549.471 2178.49,536.406C2178.29,523.279 2178.97,510.215 2177.27,497.453C2173.82,471.838 2161.08,447.955 2143.07,429.48C2125.03,410.917 2101.56,397.755 2076.27,391.761C2063.67,388.576 2050.69,386.596 2037.66,386.881C2024.67,387.134 2011.59,389.713 1999.82,395.474Z" style="fill:rgb(115,184,212);fill-rule:nonzero;"/>
        <path d="M1894.29,2179.74C1896.18,2208.82 1898.36,2237.76 1900.25,2266.92C1900.34,2268.35 1900.46,2269.86 1901.3,2271.02C1902.01,2272.01 1903.14,2272.59 1904.25,2273.09C1921.66,2281 2037.91,2284.17 2035.08,2253.6C2030.04,2199.15 2027.58,2144.48 2026.79,2089.81C2024.96,1962.4 2032.23,1835.12 2036.86,1707.84C2040.41,1610.35 2042.25,1512.79 2042.16,1415.23C2042.1,1352.21 2035.27,1273.81 1958.4,1263.05C1912.82,1256.67 1854.55,1302.7 1843.32,1347.35C1821.01,1436.06 1828.32,1490.7 1836.83,1580.94C1845.59,1673.83 1861.05,1789.94 1867.61,1883.04C1874.46,1980.23 1885.48,2057.99 1894.29,2179.74Z" style="fill:rgb(11,45,78);fill-rule:nonzero;"/>
        <path d="M1801.13,820.911C1826.21,790.976 1854.98,761.633 1894.5,752.906C1917.56,747.814 1958.46,749.247 1962.21,779.035C1964.31,795.672 1950.06,809.514 1940.6,823.642C1930.08,839.351 1924.22,857.993 1915.99,874.876C1899.5,908.732 1874.22,936.519 1852.93,967.509C1829.26,1001.97 1812.04,1041.06 1787.58,1074.65C1768.73,1100.53 1743.48,1128.09 1713.32,1141.22C1688.33,1152.1 1656.64,1149.92 1643.8,1123.54C1632.4,1100.13 1636.17,1069.39 1644.68,1045.38C1650.66,1028.5 1662.13,1014.71 1673.27,1000.84C1687.47,983.153 1698.98,964.081 1711.22,945.123C1738.9,902.291 1768.29,860.108 1801.13,820.911Z" style="fill:rgb(128,112,242);fill-rule:nonzero;"/>
        <path d="M2321.12,969.389C2328.63,981.473 2335.95,993.676 2343.2,1005.91C2359.39,1033.25 2376.5,1059.41 2389.73,1088.37C2394.63,1099.1 2399.6,1110.08 2400.65,1121.83C2402.37,1140.95 2392.55,1160.67 2376.24,1170.81C2371.9,1173.51 2367.07,1175.6 2361.98,1176.14C2354,1177 2345.97,1174 2339.38,1169.41C2328.6,1161.9 2324.08,1151.46 2315.82,1142.02C2304.92,1129.56 2294.58,1116.64 2284.52,1103.49C2264.38,1077.19 2245.19,1050.13 2223.59,1024.97C2199.49,996.914 2183.4,961.159 2168.24,927.781C2158.2,905.692 2144.7,873.917 2160.75,851.229C2167.29,841.997 2178.13,835.953 2189.41,835.245C2196.21,834.82 2203,836.224 2209.54,838.1C2215.15,839.705 2220.69,841.678 2225.73,844.617C2238.23,851.915 2245.88,864.344 2254.55,875.478C2264.76,888.582 2275.11,901.524 2284.86,914.982C2297.66,932.638 2309.61,950.874 2321.12,969.389Z" style="fill:rgb(248,161,122);fill-rule:nonzero;"/>
        <path d="M2231.7,808.166C2209.51,784.404 2183.04,763.81 2152.37,752.507C2129.02,743.898 2093.38,733.424 2077.88,761.139C2068.8,777.377 2067.21,799.353 2070.34,817.291C2076.39,852.026 2097.92,882.198 2117.43,910.386C2135.29,936.201 2150.27,963.944 2168.56,989.498C2184.89,1012.33 2204.9,1031.37 2222.74,1052.94C2241.83,1076.03 2258.59,1101.01 2274.34,1126.54C2284.59,1143.16 2294.71,1160.37 2309.64,1172.83C2318.98,1180.62 2330.61,1186.33 2342.8,1187.66C2357.62,1189.28 2365.42,1183.24 2376.78,1174.55C2385.04,1168.23 2393.38,1161.45 2398.3,1152.25C2408.23,1133.7 2401.79,1111.04 2394.47,1091.51C2373.54,1035.68 2346.78,982.16 2314.79,932.084C2300.93,910.389 2290.99,887.751 2276.33,866.418C2262.54,846.334 2248.34,825.977 2231.7,808.166Z" style="fill:rgb(155,135,255);fill-rule:nonzero;"/>
        <path d="M2070.86,716.621C2069.64,711.563 2069.01,706.554 2068.61,701.341C2068.03,693.912 2068.1,686.452 2068.26,679.008C2068.29,677.744 2068.32,676.481 2068.35,675.217C2068.74,659.091 2068.85,642.922 2069.63,626.821C2053.67,623.448 2040.72,621.756 2023.78,622.455C2009.75,623.035 1995.74,621.57 1981.72,622.393C1980.59,622.46 1979.37,622.576 1978.57,623.324C1977.77,624.077 1977.62,625.259 1977.53,626.349C1975.65,648.122 1977.5,670.175 1976.02,691.99C1975.41,701.101 1975.78,712.08 1972.33,720.663C1969.01,728.966 1957.61,733.187 1949.41,734.035C1947.34,734.248 1945.2,734.49 1943.45,735.604C1941.06,737.125 1939.89,739.94 1938.86,742.58C1930.15,764.979 1929.81,792.132 1945.19,811.845C1954.05,823.214 1966.8,831.257 1980.55,835.6C1994.3,839.944 2009.02,840.722 2023.35,839.153C2048.96,836.35 2073.75,822.857 2089.08,801.975C2100.42,786.532 2106.59,767.354 2106.36,748.197C2106.32,744.562 2105.91,740.585 2103.34,738.012C2101.39,736.058 2098.58,735.307 2095.9,734.634C2091.24,733.46 2086.4,733.162 2081.76,731.889C2079.86,731.368 2077.46,730.687 2075.94,729.358C2073.1,726.872 2072.27,721.981 2071.34,718.517C2071.17,717.884 2071.01,717.252 2070.86,716.621Z" style="fill:rgb(248,161,122);fill-rule:nonzero;"/>
        <path d="M2194.85,1227.99C2188.3,1207.23 2179.21,1178.69 2175.2,1157.9C2165.87,1109.59 2182.34,1057 2186.96,1008.87C2191.27,963.967 2192.86,918.801 2191.71,873.705C2190.84,840.068 2193.02,794.392 2169.56,767.25C2155.02,750.423 2127.68,742.274 2106.78,737.216C2060.29,725.969 2007.74,727.543 1960.45,732.577C1930.11,735.808 1898.35,746.612 1877.26,769.637C1854.76,794.197 1844.43,825.351 1837.34,857.258C1829.68,891.714 1827.08,926.76 1828.41,961.989C1829.7,996.272 1840.61,1028.85 1848.04,1062.08C1858.26,1107.79 1859.67,1155.61 1851.49,1201.75C1840.79,1262.12 1838.61,1317.73 1830.16,1390.4C1962.82,1399.29 2091.64,1387.66 2223.75,1372.7C2214.02,1322.09 2210.86,1278.74 2194.85,1227.99Z" style="fill:rgb(155,135,255);fill-rule:nonzero;"/>
        <g>
            <clipPath id="_clip1">
                <path d="M2194.85,1227.99C2188.3,1207.23 2179.21,1178.69 2175.2,1157.9C2165.87,1109.59 2182.34,1057 2186.96,1008.87C2191.27,963.966 2192.86,918.801 2191.71,873.705C2190.84,840.068 2193.02,794.392 2169.56,767.25C2155.02,750.423 2127.68,742.274 2106.78,737.216C2060.29,725.969 2007.74,727.543 1960.45,732.578C1930.11,735.808 1898.35,746.612 1877.26,769.637C1854.76,794.197 1844.43,825.352 1837.34,857.257C1829.68,891.714 1827.08,926.76 1828.41,961.989C1829.7,996.272 1840.61,1028.85 1848.04,1062.08C1858.26,1107.79 1859.67,1155.61 1851.49,1201.75C1840.79,1262.12 1838.61,1317.73 1830.16,1390.4C1962.82,1399.29 2091.64,1387.66 2223.75,1372.7C2214.02,1322.09 2210.86,1278.74 2194.85,1227.99Z"/>
            </clipPath>
            <g clip-path="url(#_clip1)">
                <path d="M1917.05,716.822C1915.13,720.118 1913.85,724.213 1913.08,727.162C1903.97,761.971 1923.02,802.995 1944.58,829.715C1963.8,853.548 1989.36,866.94 2020.29,862.688C2085.84,853.68 2139.58,788.293 2133.52,722.043C2133.28,719.384 2132.9,716.598 2131.3,714.458C2127.48,709.333 2107.94,712.927 2101.8,712.927L1959.87,712.927C1953.33,712.927 1946.79,712.954 1940.25,712.927C1934.58,712.902 1927.31,709.275 1921.84,711.842C1919.93,712.742 1918.34,714.6 1917.05,716.822Z" style="fill:rgb(228,234,239);fill-rule:nonzero;"/>
                <path d="M1936.67,712.691L2003.65,787.542L2110.59,712.691L1936.67,712.691Z" style="fill:rgb(248,161,122);fill-rule:nonzero;"/>
            </g>
        </g>
        <path d="M2070,713.375C2068.27,700.192 2067.74,687.823 2068.05,675.036C2068.44,658.91 2068.55,642.742 2069.33,626.64C2053.38,623.266 2040.43,621.575 2023.48,622.275C2009.45,622.854 1995.45,621.389 1981.43,622.213C1980.3,622.279 1979.08,622.395 1978.28,623.143C1977.47,623.896 1977.33,625.078 1977.23,626.168C1975.35,647.942 1977.5,670.175 1976.02,691.99C1975.6,698.237 1975.75,705.877 1974.59,712.039C1976.79,713.966 1977.81,714.242 1980.12,715.946C1997.43,728.748 2020.76,732.999 2041.48,727.124C2052.02,724.136 2061.49,719.418 2070,713.375Z" style="fill:rgb(229,120,92);fill-rule:nonzero;"/>
        <path d="M2122.74,541.973C2122.31,520.687 2119.08,500.536 2113.37,483.847C2088.7,411.838 1998.19,395.259 1944.59,447.97C1884.81,506.753 1909.99,644.89 1974.53,692.616C1991.78,705.376 2015.04,709.614 2035.69,703.757C2098.17,686.037 2124.09,608.468 2122.74,541.973Z" style="fill:rgb(248,161,122);fill-rule:nonzero;"/>
        <path d="M2122.64,479.495C2103.22,405.898 2014.14,382.853 1956.88,431.573C1947.75,439.346 1941.42,448.621 1934.9,458.532C1929.37,466.943 1921.68,473.309 1916.81,482.553C1911.8,492.052 1908.68,502.549 1907.64,513.236C1906.63,523.643 1910.03,532.742 1910.29,542.743C1910.02,532.306 1914.55,521.837 1922.36,514.902C1928.43,509.51 1936.1,506.347 1943.16,502.345C1950.23,498.344 1957.14,492.966 1959.79,485.295C1982.57,515.152 2017.92,524.296 2052.69,532.912C2081.87,540.141 2113.89,558.535 2114.55,592.61C2114.63,596.931 2114.93,598.129 2116.79,603.776C2118.84,598.653 2119.59,594.9 2120.21,589.432C2120.84,583.877 2122.45,578.344 2123.54,572.789C2125.77,561.362 2127.21,549.774 2127.81,538.144C2128.91,516.883 2127.14,496.552 2122.64,479.495Z" style="fill:rgb(229,120,92);fill-rule:nonzero;"/>
        <path d="M2139.23,605.842C2145,601.444 2149.44,594.982 2151.91,588.197C2159.69,565.333 2158.85,540.024 2157.9,515.525C2157.37,501.862 2156.81,488.004 2153.07,474.983C2149,460.779 2141.27,448.163 2132.12,437.353C2105.73,406.141 2066.34,390.284 2028.47,393.522C2013.26,394.823 2002.07,402.111 1988.71,408.295C1975.67,414.334 1960.35,417.65 1946.63,422.174C1930.81,427.393 1914.52,432.869 1901.96,443.826C1892.78,451.836 1886.1,462.405 1881.32,473.612C1875.59,487.048 1875.03,501.992 1876.67,516.328C1878.02,528.141 1879.57,540.751 1884.81,551.777C1889.72,562.103 1900.65,568.848 1910.43,573.994C1908.98,573.231 1910.23,556.19 1910.2,553.562C1909.97,538.511 1910.8,523.054 1915.51,508.648C1920.06,494.566 1929.08,485.948 1940.8,477.357C1945.51,473.911 1950.19,470.373 1954.12,466.035C1956.09,463.867 1964.64,453.877 1963.24,450.787C1969.89,465.458 1980.31,480.522 1993.34,490.139C2018.1,508.42 2045.66,521.33 2073.62,532.217C2075.68,533.019 2077.76,533.817 2079.82,534.646C2087.51,537.731 2095.08,541.245 2101.4,546.993C2115.5,559.822 2116.52,579.545 2116,597.324C2115.94,599.272 2115.9,601.268 2116.52,603.115C2119.47,611.84 2133.58,610.148 2139.23,605.842Z" style="fill:rgb(11,45,78);fill-rule:nonzero;"/>
        <path d="M1455.04,773.727C1444.99,771.549 1434.68,770.882 1424.42,771.039C1417.33,771.147 1408.2,771.947 1404.71,779.228C1404.08,780.537 1404.13,782.29 1405.22,783.253C1405.68,783.665 1406.28,783.891 1406.87,784.092C1417.89,787.848 1430.85,785.608 1440.67,791.884C1437.83,790.068 1431.22,790.292 1427.89,789.934C1423.38,789.451 1418.84,789.18 1414.31,789.121C1406.95,789.026 1398.82,788.978 1391.98,792.565C1390.12,793.543 1388.48,795.149 1387.95,797.186C1387.15,800.295 1389.18,803.577 1391.92,805.256C1394.65,806.936 1397.95,807.377 1401.13,807.781C1403.66,808.101 1406.19,808.421 1408.72,808.742C1403.92,808.569 1397.26,808.478 1392.96,810.899C1389.29,812.957 1386.93,817.952 1389.17,821.51C1391.21,824.746 1395.06,824.832 1398.35,825.729C1403.44,827.116 1408.92,827.392 1413.88,829.193C1410.83,828.175 1406.79,831.375 1404.71,833.829C1402.63,836.284 1402,839.797 1402.77,842.92C1403.08,844.185 1403.63,845.432 1404.58,846.32C1405.81,847.461 1407.53,847.867 1409.16,848.23C1419.92,850.616 1430.67,853.003 1441.43,855.389C1458.08,859.051 1474.79,861.111 1491.17,866.219C1496.98,868.029 1503.27,869.726 1508.72,872.445C1517.78,876.958 1530.34,879.751 1537.43,887.336C1543.45,893.767 1557.18,908.029 1565.78,909.914C1577.89,912.569 1576.89,910.181 1581.47,900.863C1587.27,889.059 1570.75,870.095 1564.57,859.53C1560.51,852.574 1563.06,841.752 1560.76,834.039C1558.61,826.841 1555.69,819.873 1552.09,813.284C1549.36,808.31 1545.54,804.142 1541.56,800.159C1537.95,796.549 1533.94,794.844 1529.97,791.763C1522.34,785.845 1517.45,777.148 1511.82,769.482C1507.79,763.981 1503.41,757.704 1495.65,758.733C1491.33,759.304 1487.42,762.266 1485.69,766.26C1483.62,771.04 1486.05,772.892 1488.77,776.68C1490.68,779.338 1494.06,786.634 1496.93,788.036C1483.66,781.536 1469.55,776.877 1455.04,773.727Z" style="fill:rgb(248,161,122);fill-rule:nonzero;"/>
        <path d="M1472.64,799.819C1469.72,798.747 1466.81,797.693 1463.87,796.741C1460.92,795.8 1457.96,794.901 1454.98,794.12C1451.99,793.317 1448.98,792.629 1445.96,791.986C1444.44,791.667 1442.92,791.378 1441.4,791.107L1439.11,790.693C1438.34,790.574 1437.58,790.444 1436.81,790.304C1438.37,790.352 1439.91,790.491 1441.47,790.621C1443.01,790.795 1444.55,791.001 1446.09,791.229C1449.17,791.698 1452.22,792.366 1455.23,793.155C1458.24,793.966 1461.22,794.898 1464.12,796.019C1467.03,797.128 1469.89,798.369 1472.64,799.819Z" style="fill:rgb(229,120,92);fill-rule:nonzero;"/>
        <path d="M1464.47,814.661C1459.56,813.311 1454.58,812.267 1449.57,811.524C1444.55,810.783 1439.5,810.266 1434.44,810.007C1429.37,809.666 1424.29,809.576 1419.21,809.506L1403.96,809.365C1406.5,809.191 1409.04,809.088 1411.58,808.957C1414.12,808.864 1416.67,808.793 1419.21,808.737C1424.3,808.647 1429.4,808.746 1434.5,809.01C1439.58,809.354 1444.67,809.859 1449.69,810.768C1454.71,811.674 1459.68,812.916 1464.47,814.661Z" style="fill:rgb(229,120,92);fill-rule:nonzero;"/>
        <path d="M1458.46,834.698C1454.72,833.435 1450.92,832.449 1447.07,831.739C1443.22,831.03 1439.33,830.523 1435.42,830.256C1431.51,829.908 1427.58,829.793 1423.66,829.69L1411.85,829.436C1413.82,829.282 1415.78,829.199 1417.75,829.087C1419.72,829.013 1421.69,828.961 1423.66,828.921C1427.6,828.865 1431.55,828.988 1435.49,829.26C1439.43,829.613 1443.36,830.111 1447.22,830.989L1450.1,831.709L1452.94,832.548L1455.73,833.55C1456.65,833.922 1457.55,834.307 1458.46,834.698Z" style="fill:rgb(229,120,92);fill-rule:nonzero;"/>
        <path d="M2298.73,1166.57L2278.4,1170.11C2278.4,1170.11 2005.78,932.014 2001.92,927.335C1997.72,922.26 2005.13,901.163 2014.68,899.199C2024.22,897.235 2249.55,850.871 2249.55,850.871L2298.73,1166.57Z" style="fill:rgb(38,168,209);fill-rule:nonzero;"/>
        <path d="M2293.73,1168.07L2278.57,1183.25L2258.04,1178.69C2258.04,1178.69 2012.75,925.201 2011.01,924.208C2009.03,923.08 2009.74,907.641 2020.93,905.28C2032.12,902.918 2243.49,858.313 2243.49,858.313L2293.73,1168.07Z" style="fill:white;fill-rule:nonzero;"/>
        <path d="M2282.43,1183.91L2070.32,1230.64L2001.05,926.514L2228.98,882.215L2282.43,1183.91Z" style="fill:rgb(61,200,232);fill-rule:nonzero;"/>
        <path d="M2264.02,1204.85L2243.79,1208.9C2243.79,1208.9 1965.14,977.905 1961.15,973.327C1956.83,968.361 1963.7,947.081 1973.19,944.872C1982.68,942.663 2206.74,890.516 2206.74,890.516L2264.02,1204.85Z" style="fill:rgb(239,177,38);fill-rule:nonzero;"/>
        <path d="M2259.06,1206.47L2244.3,1222.04L2223.66,1218C2223.66,1218 1971.93,970.914 1970.16,969.967C1968.16,968.89 1968.46,953.439 1979.59,950.79C1990.71,948.141 2200.87,898.111 2200.87,898.111L2259.06,1206.47Z" style="fill:white;fill-rule:nonzero;"/>
        <path d="M2248.18,1222.6L2037.34,1274.77L1960.26,972.53L2186.98,922.378L2248.18,1222.6Z" style="fill:rgb(255,199,60);fill-rule:nonzero;"/>
        <path d="M2153.33,1034.78L2040.74,1060.4L2030.32,1028.3L2145.93,999.976L2153.33,1034.78Z" style="fill:white;fill-rule:nonzero;"/>
        <path d="M2202.52,1148.96C2238.9,1135.67 2275.11,1122.01 2311.85,1109.99C2335.09,1102.91 2362.97,1095.26 2385.5,1105.04C2397.42,1110.21 2403.35,1121.53 2402.88,1134.8C2402.11,1156.7 2381.23,1172.97 2364.34,1183.56C2353.71,1190.22 2342.47,1195.79 2331.05,1200.71C2320.18,1205.39 2308.69,1210.61 2297.24,1212.82C2235.06,1224.86 2211.94,1231.89 2149.27,1234.77C2145.37,1234.95 2101.5,1231.89 2098.12,1230.14C2089.74,1225.8 2090.44,1213.58 2092.95,1205.3C2095.73,1196.12 2100.78,1188.27 2109.09,1183.25C2120.41,1176.42 2134.65,1173.32 2146.97,1168.95C2161.73,1163.71 2176.47,1158.42 2191.2,1153.09C2194.97,1151.72 2198.75,1150.34 2202.52,1148.96Z" style="fill:rgb(248,161,122);fill-rule:nonzero;"/>
        <path d="M2168.99,1229.9C2154.56,1231.83 2138.78,1230.09 2125.48,1237.13C2120.05,1240 2114.8,1244.02 2108.85,1245.77C2093.9,1250.16 2078.51,1252.75 2063.07,1254.65C2055.25,1255.61 2047.42,1256.42 2039.59,1257.17C2033.67,1257.74 2027.59,1256.59 2022.67,1253.11C2018.91,1250.45 2015.49,1247.8 2014.66,1242.94C2014.53,1242.15 2014.46,1241.32 2014.05,1240.63C2013.33,1239.42 2011.8,1239.01 2010.49,1238.49C2004.06,1235.97 2000.39,1227.97 2002.66,1221.45C2002.88,1220.82 2003.15,1220.15 2002.97,1219.5C2002.75,1218.74 2001.97,1218.3 2001.32,1217.84C1995.57,1213.9 1995.9,1205.2 1999.84,1200.15C2000.38,1199.47 2000.99,1198.81 2001.31,1198C2001.99,1196.33 2001.31,1194.45 2000.95,1192.68C2000.19,1188.86 2001.16,1184.55 2003.98,1181.77C2007.27,1178.52 2012.97,1178.34 2017.3,1177.78C2028.97,1176.28 2042.2,1174.54 2053.35,1170.68C2055.72,1169.86 2064.36,1167.63 2063.13,1164.38C2062.23,1161.98 2060.24,1160.1 2057.99,1158.88C2052.7,1156 2045.98,1156.5 2040.23,1154.48C2033.68,1152.18 2027.45,1148.95 2021.81,1144.92C2020.91,1144.28 2019.99,1143.57 2019.53,1142.57C2018.84,1141.06 2019.38,1139.25 2020.34,1137.9C2022.2,1135.28 2025.47,1133.96 2028.68,1133.7C2031.88,1133.45 2035.08,1134.13 2038.22,1134.8C2046.11,1136.49 2053.99,1138.18 2061.87,1139.88C2067.6,1141.11 2073.39,1142.39 2078.82,1144.64C2084.1,1146.84 2087.82,1150.3 2092.28,1153.6C2101.71,1160.59 2110.82,1170.92 2122.81,1173.51C2136.51,1176.46 2155.02,1171.62 2168.28,1168.08" style="fill:rgb(248,161,122);fill-rule:nonzero;"/>
        <path d="M2115.32,563.291C2138.03,550.578 2145.37,582.126 2141.6,597.9C2140.04,604.414 2137.54,610.779 2133.56,616.165C2128.2,623.421 2112.78,635.521 2103.75,627.732C2099.65,624.197 2099.17,618.128 2098.99,612.72C2098.51,598.219 2099.92,571.91 2115.32,563.291Z" style="fill:rgb(248,161,122);fill-rule:nonzero;"/>
        <path d="M2003.65,787.542L1974.59,824.069L1921.25,740.146L1953.64,720.417L2003.65,787.542Z" style="fill:white;fill-rule:nonzero;"/>
        <path d="M2003.65,787.542L2037.75,828.013L2123.36,741.676L2090.95,720.417L2003.65,787.542Z" style="fill:white;fill-rule:nonzero;"/>
        <path d="M2320.02,1212.1C2288.79,1223.52 2256.55,1229.5 2223.28,1235.36C2204.29,1238.7 2185.14,1241.86 2165.8,1241.99C2149.39,1242.1 2130.44,1249.01 2129.96,1226.84C2129.59,1209.64 2129.5,1192.44 2129.7,1175.24C2129.72,1172.84 2129.8,1170.29 2131.17,1168.32C2132.38,1166.57 2134.4,1165.6 2136.33,1164.7C2150.17,1158.23 2165.45,1155.16 2180.09,1150.39C2237.73,1131.59 2294.97,1105.76 2355.84,1099.67C2365.74,1098.68 2374.73,1098.17 2384.16,1101.99C2399.01,1108 2405.38,1125.6 2402.87,1140.56C2397.89,1170.21 2371.57,1188.63 2346.39,1200.92C2337.68,1205.16 2328.89,1208.85 2320.02,1212.1Z" style="fill:rgb(155,135,255);fill-rule:nonzero;"/>
        <path d="M1592.3,1082.42C1569.52,1049.86 1552.96,1013.41 1538.12,976.692C1530.49,957.81 1523.24,938.878 1517.06,919.469C1512.65,905.625 1505.24,891.23 1520.53,882.099C1532.16,875.159 1543.78,868.218 1555.4,861.276C1560.24,858.389 1565.37,855.414 1571,855.348C1586,855.173 1594,874.269 1600.5,884.897C1618.69,914.625 1637.14,943.83 1657.03,972.457C1666.73,986.426 1676.37,1000.45 1685.37,1014.88C1689.73,1021.87 1693.94,1028.95 1697.93,1036.15C1700.83,1041.38 1709.07,1052.02 1709.07,1057.99C1719.86,1081.27 1732.29,1122.22 1705.78,1139.65C1682.4,1155.03 1651.69,1142.76 1632.09,1126.99C1616.7,1114.61 1603.58,1098.55 1592.3,1082.42Z" style="fill:rgb(128,112,242);fill-rule:nonzero;"/>
        <path d="M1057.59,359.03L994.708,359.03C967.976,359.03 946.104,380.902 946.104,407.634C946.104,424.164 954.472,438.827 967.175,447.618L967.175,481.826L1002.16,456.239L1057.59,456.239C1084.32,456.239 1106.19,434.367 1106.19,407.634C1106.19,380.902 1084.32,359.03 1057.59,359.03Z" style="fill:rgb(219,205,254);fill-rule:nonzero;"/>
        <path d="M998.306,407.634C998.306,411.708 995.003,415.01 990.93,415.01C986.856,415.01 983.554,411.708 983.554,407.634C983.554,403.561 986.856,400.259 990.93,400.259C995.003,400.259 998.306,403.561 998.306,407.634Z" style="fill:white;fill-rule:nonzero;"/>
        <path d="M1033.52,407.634C1033.52,411.708 1030.22,415.01 1026.15,415.01C1022.07,415.01 1018.77,411.708 1018.77,407.634C1018.77,403.561 1022.07,400.259 1026.15,400.259C1030.22,400.259 1033.52,403.561 1033.52,407.634Z" style="fill:white;fill-rule:nonzero;"/>
        <path d="M1068.74,407.634C1068.74,411.708 1065.44,415.01 1061.36,415.01C1057.29,415.01 1053.99,411.708 1053.99,407.634C1053.99,403.561 1057.29,400.259 1061.36,400.259C1065.44,400.259 1068.74,403.561 1068.74,407.634Z" style="fill:white;fill-rule:nonzero;"/>
        <path d="M700.856,527.023C691.162,510.433 666.69,502.103 643.036,529.748C619.383,502.103 594.911,510.433 585.216,527.023C561.328,567.899 643.036,616.002 643.036,616.002C643.036,616.002 724.745,567.899 700.856,527.023Z" style="fill:rgb(219,205,254);fill-rule:nonzero;"/>
        <path d="M890.191,258.749L769.27,258.749C762.669,258.749 757.27,253.349 757.27,246.749L757.27,174.055C757.27,167.455 762.669,162.055 769.27,162.055L890.191,162.055C896.791,162.055 902.191,167.455 902.191,174.055L902.191,246.749C902.191,253.349 896.791,258.749 890.191,258.749Z" style="fill:rgb(219,205,254);fill-rule:nonzero;"/>
        <path d="M758.218,166.596L821.667,228.12C823.89,230.273 826.825,231.327 829.73,231.326C832.635,231.327 835.57,230.273 837.793,228.12L901.243,166.596L898.458,163.724L835.009,225.248C833.598,226.618 831.679,227.326 829.73,227.326C827.782,227.326 825.862,226.618 824.452,225.248L761.002,163.724L758.218,166.596Z" style="fill:white;fill-rule:nonzero;"/>
        <path d="M760.828,257.218L812.89,217.228L810.453,214.055L758.391,254.046" style="fill:white;fill-rule:nonzero;"/>
        <path d="M901.069,254.046L849.007,214.055L846.571,217.228L898.632,257.218" style="fill:white;fill-rule:nonzero;"/>
        <path d="M424.054,414.95L280.648,414.95C274.021,414.95 268.648,409.578 268.648,402.95L268.648,310.674C268.648,304.046 274.021,298.674 280.648,298.674L424.054,298.674C430.682,298.674 436.054,304.046 436.054,310.674L436.054,402.95C436.054,409.578 430.682,414.95 424.054,414.95Z" style="fill:rgb(219,205,254);fill-rule:nonzero;"/>
        <path d="M352.352,451.691L381.704,412.103L322.999,412.103L352.352,451.691Z" style="fill:rgb(219,205,254);fill-rule:nonzero;"/>
        <path d="M360.168,339.159C355.415,331.026 343.417,326.942 331.821,340.495C320.224,326.942 308.227,331.026 303.474,339.159C291.762,359.199 331.821,382.783 331.821,382.783C331.821,382.783 371.88,359.199 360.168,339.159Z" style="fill:white;fill-rule:nonzero;"/>
        <path d="M396.394,371.763L389.152,371.763L389.152,351.936L389.223,348.679L389.34,345.116C388.136,346.319 387.301,347.108 386.832,347.483L382.895,350.647L379.402,346.288L390.441,337.499L396.394,337.499L396.394,371.763Z" style="fill:white;fill-rule:nonzero;"/>
        <path d="M1666.86,452.634L1523.45,452.634C1516.82,452.634 1511.45,447.261 1511.45,440.634L1511.45,348.357C1511.45,341.729 1516.82,336.357 1523.45,336.357L1666.86,336.357C1673.48,336.357 1678.86,341.729 1678.86,348.357L1678.86,440.634C1678.86,447.261 1673.48,452.634 1666.86,452.634Z" style="fill:rgb(219,205,254);fill-rule:nonzero;"/>
        <path d="M1595.15,489.374L1624.51,449.786L1565.8,449.786L1595.15,489.374Z" style="fill:rgb(219,205,254);fill-rule:nonzero;"/>
        <path d="M1639.2,409.447L1631.95,409.447L1631.95,389.619L1632.02,386.362L1632.14,382.799C1630.94,384.002 1630.1,384.791 1629.63,385.166L1625.7,388.33L1622.21,383.971L1633.24,375.182L1639.2,375.182L1639.2,409.447Z" style="fill:white;fill-rule:nonzero;"/>
        <path d="M1585.51,374.029L1561.75,374.029C1551.65,374.029 1543.39,382.293 1543.39,392.394C1543.39,398.64 1546.55,404.181 1551.35,407.503L1551.35,420.429L1564.57,410.76L1585.51,410.76C1595.61,410.76 1603.88,402.495 1603.88,392.394C1603.88,382.293 1595.61,374.029 1585.51,374.029Z" style="fill:white;fill-rule:nonzero;"/>
        <path d="M1333.99,286.926C1333.99,323.031 1304.72,352.3 1268.62,352.3C1232.51,352.3 1203.25,323.031 1203.25,286.926C1203.25,250.821 1232.51,221.553 1268.62,221.553C1304.72,221.553 1333.99,250.821 1333.99,286.926Z" style="fill:rgb(255,199,60);fill-rule:nonzero;"/>
        <path d="M1314.18,288.683C1314.18,313.844 1293.78,334.241 1268.62,334.241C1243.46,334.241 1223.06,313.844 1223.06,288.683" style="fill:white;fill-rule:nonzero;"/>
        <path d="M1257.49,245.422C1254.06,239.552 1245.4,236.604 1237.03,246.387C1228.66,236.604 1220,239.552 1216.57,245.422C1208.11,259.888 1237.03,276.91 1237.03,276.91C1237.03,276.91 1265.94,259.888 1257.49,245.422Z" style="fill:rgb(128,112,242);fill-rule:nonzero;"/>
        <path d="M1320.67,245.422C1317.24,239.552 1308.58,236.604 1300.21,246.387C1291.84,236.604 1283.18,239.552 1279.75,245.422C1271.29,259.888 1300.21,276.91 1300.21,276.91C1300.21,276.91 1329.13,259.888 1320.67,245.422Z" style="fill:rgb(128,112,242);fill-rule:nonzero;"/>
        <path d="M278.608,621.41C278.608,657.514 249.339,686.783 213.234,686.783C177.13,686.783 147.861,657.514 147.861,621.41C147.861,585.305 177.13,556.036 213.234,556.036C249.339,556.036 278.608,585.305 278.608,621.41Z" style="fill:rgb(255,199,60);fill-rule:nonzero;"/>
        <path d="M229.537,585.112C231.327,583.854 233.305,583.35 235.285,583.21C237.266,583.094 239.27,583.393 241.15,584.097C243.03,584.795 244.791,585.911 246.204,587.4C247.598,588.894 248.683,590.761 248.863,592.952C246.759,592.37 245.137,591.822 243.558,591.306C241.997,590.781 240.525,590.277 239.044,589.715C237.563,589.158 236.074,588.552 234.514,587.847C232.952,587.12 231.337,586.342 229.537,585.112Z" style="fill:rgb(11,45,78);fill-rule:nonzero;"/>
        <path d="M194.821,585.219C193.014,586.438 191.395,587.207 189.829,587.927C188.265,588.622 186.773,589.22 185.289,589.768C183.805,590.323 182.331,590.818 180.766,591.334C179.184,591.842 177.559,592.381 175.452,592.951C175.644,590.761 176.739,588.9 178.142,587.414C179.563,585.933 181.33,584.827 183.214,584.139C185.098,583.446 187.104,583.158 189.083,583.285C191.063,583.435 193.038,583.951 194.821,585.219Z" style="fill:rgb(11,45,78);fill-rule:nonzero;"/>
        <path d="M178.738,635.75C180.693,653.074 195.388,666.54 213.235,666.54C231.081,666.54 245.776,653.074 247.731,635.75L178.738,635.75Z" style="fill:rgb(11,45,78);fill-rule:nonzero;"/>
        <path d="M189.406,657.057C195.624,662.931 204.005,666.54 213.235,666.54C222.066,666.54 230.124,663.238 236.25,657.807L235.931,657.061C212.765,645.764 189.721,656.904 189.406,657.057Z" style="fill:rgb(128,112,242);fill-rule:nonzero;"/>
        <path d="M241.523,606.795C241.523,610.912 238.84,614.249 235.53,614.249C232.22,614.249 229.537,610.912 229.537,606.795C229.537,602.679 232.22,599.341 235.53,599.341C238.84,599.341 241.523,602.679 241.523,606.795Z" style="fill:rgb(11,45,78);fill-rule:nonzero;"/>
        <path d="M194.821,606.795C194.821,610.912 192.138,614.249 188.828,614.249C185.518,614.249 182.834,610.912 182.834,606.795C182.834,602.679 185.518,599.341 188.828,599.341C192.138,599.341 194.821,602.679 194.821,606.795Z" style="fill:rgb(11,45,78);fill-rule:nonzero;"/>
        <path d="M1315.37,629.241C1315.37,665.345 1286.1,694.614 1250,694.614C1213.9,694.614 1184.63,665.345 1184.63,629.241C1184.63,593.136 1213.9,563.867 1250,563.867C1286.1,563.867 1315.37,593.136 1315.37,629.241Z" style="fill:rgb(255,199,60);fill-rule:nonzero;"/>
        <path d="M1264.3,613.278C1263.98,610.799 1265.04,608.169 1267.03,606.312C1269.02,604.444 1271.83,603.443 1274.56,603.492C1277.29,603.518 1279.99,604.552 1281.97,606.354C1283.94,608.139 1285.16,610.768 1284.81,613.278C1282.82,611.744 1281.11,610.877 1279.41,610.318C1277.72,609.764 1276.08,609.52 1274.47,609.49C1272.85,609.473 1271.27,609.672 1269.64,610.227C1267.98,610.775 1266.3,611.746 1264.3,613.278Z" style="fill:rgb(11,45,78);fill-rule:nonzero;"/>
        <path d="M1235.85,613.278C1233.84,611.746 1232.16,610.775 1230.51,610.227C1228.87,609.672 1227.3,609.473 1225.68,609.49C1224.06,609.52 1222.42,609.764 1220.74,610.318C1219.04,610.877 1217.33,611.744 1215.34,613.278C1214.98,610.768 1216.2,608.139 1218.18,606.354C1220.16,604.552 1222.86,603.518 1225.59,603.492C1228.32,603.443 1231.13,604.444 1233.11,606.312C1235.1,608.169 1236.16,610.799 1235.85,613.278Z" style="fill:rgb(11,45,78);fill-rule:nonzero;"/>
        <path d="M1211.39,643.785C1216.2,649.703 1222.39,653.692 1229.06,656.185C1235.74,658.683 1242.88,659.753 1249.98,659.65C1257.09,659.527 1264.18,658.228 1270.81,655.55C1277.44,652.883 1283.53,648.761 1288.61,643.083C1285.65,650.146 1279.76,656.024 1272.85,659.803C1265.91,663.615 1257.98,665.528 1250.08,665.647C1242.18,665.762 1234.19,664.11 1227.14,660.474C1223.63,658.649 1220.36,656.325 1217.63,653.499C1214.92,650.662 1212.68,647.386 1211.39,643.785Z" style="fill:rgb(11,45,78);fill-rule:nonzero;"/>
        <path d="M1306.26,629.242C1306.26,634.66 1300.31,639.053 1292.98,639.053C1285.65,639.053 1279.7,634.66 1279.7,629.242C1279.7,623.824 1285.65,619.431 1292.98,619.431C1300.31,619.431 1306.26,623.824 1306.26,629.242Z" style="fill:rgb(128,112,242);fill-rule:nonzero;"/>
        <path d="M1218.71,629.242C1218.71,634.66 1212.77,639.053 1205.44,639.053C1198.1,639.053 1192.16,634.66 1192.16,629.242C1192.16,623.824 1198.1,619.431 1205.44,619.431C1212.77,619.431 1218.71,623.824 1218.71,629.242Z" style="fill:rgb(128,112,242);fill-rule:nonzero;"/>
    </g>
</svg>
